<svg width="25" height="24" viewBox="0 0 25 24" fill="none" xmlns="http://www.w3.org/2000/svg">
<path d="M5.5 15V17C5.5 18.054 6.45 19 7.5 19H10.5V21H7.5C6.43913 21 5.42172 20.5786 4.67157 19.8284C3.92143 19.0783 3.5 18.0609 3.5 17V15H5.5ZM18.5 10L22.9 21H20.745L19.544 18H15.454L14.255 21H12.101L16.5 10H18.5ZM17.5 12.885L16.253 16H18.745L17.5 12.885ZM3.5 3H9.5C10.079 3.00021 10.6456 3.16798 11.1314 3.48307C11.6172 3.79817 12.0015 4.24711 12.2378 4.77574C12.4741 5.30437 12.5523 5.89009 12.4631 6.46221C12.3739 7.03433 12.121 7.56841 11.735 8C12.121 8.43159 12.3739 8.96567 12.4631 9.53779C12.5523 10.1099 12.4741 10.6956 12.2378 11.2243C12.0015 11.7529 11.6172 12.2018 11.1314 12.5169C10.6456 12.832 10.079 12.9998 9.5 13H3.5V3ZM9.5 9H5.5V11H9.5C9.76522 11 10.0196 10.8946 10.2071 10.7071C10.3946 10.5196 10.5 10.2652 10.5 10C10.5 9.73478 10.3946 9.48043 10.2071 9.29289C10.0196 9.10536 9.76522 9 9.5 9ZM17.5 3C18.5609 3 19.5783 3.42143 20.3284 4.17157C21.0786 4.92172 21.5 5.93913 21.5 7V9H19.5V7C19.5 6.46957 19.2893 5.96086 18.9142 5.58579C18.5391 5.21071 18.0304 5 17.5 5H14.5V3H17.5ZM9.5 5H5.5V7H9.5C9.76522 7 10.0196 6.89464 10.2071 6.70711C10.3946 6.51957 10.5 6.26522 10.5 6C10.5 5.73478 10.3946 5.48043 10.2071 5.29289C10.0196 5.10536 9.76522 5 9.5 5Z" fill="#F87F28"/>
</svg>
