<svg width="20" height="19" viewBox="0 0 20 19" fill="none" xmlns="http://www.w3.org/2000/svg">
<path d="M1.05612 5.28295L9.53254 0.200946C9.67501 0.115466 9.83802 0.0703125 10.0042 0.0703125C10.1703 0.0703125 10.3333 0.115466 10.4758 0.200946L18.944 5.28386C19.0119 5.32458 19.0681 5.3822 19.1072 5.45112C19.1462 5.52004 19.1667 5.5979 19.1667 5.67711V17.3334C19.1667 17.5766 19.0701 17.8097 18.8982 17.9816C18.7263 18.1535 18.4932 18.2501 18.25 18.2501H1.75004C1.50693 18.2501 1.27377 18.1535 1.10186 17.9816C0.929951 17.8097 0.833374 17.5766 0.833374 17.3334V5.6762C0.833357 5.59699 0.853869 5.51913 0.892907 5.45021C0.931946 5.38129 0.98818 5.32366 1.05612 5.28295ZM2.66671 6.45536V16.4168H17.3334V6.45445L10.0037 2.05445L2.66671 6.45445V6.45536ZM10.055 11.5566L14.9097 7.46553L16.0904 8.86803L10.0679 13.9436L3.91704 8.87445L5.08304 7.45911L10.055 11.5566Z" fill="white"/>
</svg>
