<svg width="49" height="782" viewBox="0 0 49 782" fill="none" xmlns="http://www.w3.org/2000/svg">
<path fill-rule="evenodd" clip-rule="evenodd" d="M49 0.812988C47.9424 5.76562 46.8953 10.7483 45.8586 15.7607C38.5195 51.1514 31.7866 88.1692 25.6992 126.601C19.7441 164.416 14.8169 201.757 11.054 237.586C9.10718 256.122 7.39356 274.751 5.9607 292.958C4.54981 310.879 3.37403 328.866 2.46509 346.418C1.57032 363.704 0.910894 381.026 0.505132 397.9C0.106939 414.333 -0.0559028 430.83 0.0168512 447.325C0.0893609 463.141 0.396978 478.931 0.938482 494.625C1.46509 509.802 2.22242 524.86 3.20728 539.729C4.17139 554.241 5.35792 568.543 6.76075 582.568C8.14527 596.378 9.73902 609.896 11.5349 623.058C18.5515 674.479 28.6636 720.62 41.5852 760.202C43.9556 767.458 46.4404 774.547 49 781.355V0.812988Z" fill="#1E5DE9" fill-opacity="0.07"/>
</svg>
