<svg width="132" height="127" viewBox="0 0 132 127" fill="none" xmlns="http://www.w3.org/2000/svg">
<g opacity="0.19">
<path opacity="0.19" d="M107.326 13.9664C106.781 13.5423 106.231 13.1302 105.675 12.7305L13.4119 101.309C13.8321 101.839 14.2628 102.367 14.7018 102.893L107.326 13.9664Z" fill="#4181E0"/>
<path opacity="0.19" d="M84.7869 2.59376C84.0207 2.37578 83.2524 2.17617 82.4809 1.98608L2.22253 79.0403C2.42115 79.7819 2.62918 80.5206 2.85602 81.2542L84.7869 2.59376Z" fill="#4181E0"/>
<path opacity="0.19" d="M100.619 9.40261C100.011 9.03991 99.3966 8.68916 98.7757 8.35034L8.84995 94.6852C9.20536 95.2793 9.57123 95.8694 9.94651 96.4555L100.619 9.40261Z" fill="#4181E0"/>
<path opacity="0.19" d="M93.1371 5.58023C92.4566 5.28547 91.773 5.00206 91.0851 4.72998L5.08044 87.3009C5.36373 87.9622 5.65853 88.6196 5.9669 89.2709L93.1371 5.58023Z" fill="#4181E0"/>
<path opacity="0.19" d="M75.3805 0.625533C74.5087 0.505402 73.6359 0.405244 72.7609 0.319336L0.484802 69.709C0.574702 70.549 0.679244 71.388 0.80364 72.224L75.3805 0.625533Z" fill="#4181E0"/>
<path opacity="0.19" d="M112.589 18.5081C112.341 18.2694 112.092 18.0419 111.843 17.8113L18.7033 107.233C18.9448 107.472 19.1842 107.711 19.4288 107.949C19.6745 108.188 19.9264 108.416 20.1752 108.646L113.314 19.2238C113.073 18.9853 112.833 18.7418 112.589 18.5081Z" fill="#4181E0"/>
<path opacity="0.19" d="M64.5679 0C63.5403 0.0201723 62.5138 0.0647305 61.4893 0.133577L0.292819 58.8875C0.221735 59.871 0.1747 60.8563 0.151703 61.843L64.5679 0Z" fill="#4181E0"/>
<path opacity="0.19" d="M1.74576 49.3106L51.5135 1.5271C50.188 1.81292 48.8688 2.13899 47.5569 2.50541L2.76289 45.5104C2.38029 46.7681 2.04055 48.0349 1.74576 49.3106Z" fill="#4181E0"/>
<path opacity="0.19" d="M131.726 67.5662C131.795 66.5817 131.842 65.5961 131.865 64.6106L67.4498 126.453C68.4774 126.431 69.5039 126.387 70.5284 126.32L131.726 67.5662Z" fill="#4181E0"/>
<path opacity="0.19" d="M131.535 56.7464C131.444 55.9066 131.34 55.0675 131.216 54.2307L56.64 125.83C57.5107 125.949 58.3836 126.05 59.2596 126.136L131.535 56.7464Z" fill="#4181E0"/>
<path opacity="0.19" d="M32.551 8.73071C22.9475 14.1895 14.9318 21.886 9.24823 31.1081L32.551 8.73071Z" fill="#4181E0"/>
<path opacity="0.19" d="M129.256 80.9412C129.636 79.6837 129.976 78.4171 130.273 77.1426L80.5052 124.926C81.8307 124.638 83.1489 124.312 84.4618 123.947L129.256 80.9412Z" fill="#4181E0"/>
<path opacity="0.19" d="M99.4666 117.723C109.071 112.265 117.086 104.571 122.77 95.3496L99.4666 117.723Z" fill="#4181E0"/>
<path opacity="0.19" d="M123.168 31.7674C122.813 31.1741 122.447 30.5844 122.072 29.9985L31.4001 117.051C32.0074 117.413 32.621 117.763 33.242 118.103L123.168 31.7674Z" fill="#4181E0"/>
<path opacity="0.19" d="M118.606 25.1452C118.186 24.6113 117.757 24.0826 117.319 23.5593L24.6931 112.487C25.2367 112.911 25.7866 113.323 26.3427 113.723L118.606 25.1452Z" fill="#4181E0"/>
<path opacity="0.19" d="M129.795 47.4112C129.597 46.6715 129.388 45.9326 129.162 45.1985L47.2308 123.86C47.995 124.078 48.7644 124.276 49.5348 124.467L129.795 47.4112Z" fill="#4181E0"/>
<path opacity="0.19" d="M126.938 39.1515C126.654 38.4913 126.359 37.8349 126.051 37.1821L38.8807 120.874C39.5612 121.169 40.2448 121.455 40.9327 121.726L126.938 39.1515Z" fill="#4181E0"/>
</g>
</svg>
