<svg width="43" height="43" viewBox="0 0 43 43" fill="none" xmlns="http://www.w3.org/2000/svg">
<path d="M0.0375977 21.6707C0.0375977 10.0727 9.43962 0.670654 21.0376 0.670654H30.0376C36.665 0.670654 42.0376 6.04324 42.0376 12.6707V21.6707C42.0376 33.2686 32.6356 42.6707 21.0376 42.6707C9.43962 42.6707 0.0375977 33.2686 0.0375977 21.6707Z" fill="#F87F28"/>
<path d="M26.7656 24.3985L21.4934 29.6707L16.2213 24.3985C15.1786 23.3558 14.4685 22.0273 14.1809 20.581C13.8932 19.1347 14.0408 17.6356 14.6052 16.2732C15.1695 14.9109 16.1251 13.7464 17.3512 12.9272C18.5773 12.1079 20.0188 11.6707 21.4934 11.6707C22.9681 11.6707 24.4096 12.1079 25.6357 12.9272C26.8618 13.7464 27.8174 14.9109 28.3817 16.2732C28.9461 17.6356 29.0937 19.1347 28.806 20.581C28.5184 22.0273 27.8083 23.3558 26.7656 24.3985ZM21.4934 20.7833C21.9329 20.7833 22.3543 20.6087 22.665 20.298C22.9757 19.9873 23.1503 19.5659 23.1503 19.1264C23.1503 18.687 22.9757 18.2656 22.665 17.9549C22.3543 17.6441 21.9329 17.4696 21.4934 17.4696C21.054 17.4696 20.6326 17.6441 20.3219 17.9549C20.0112 18.2656 19.8366 18.687 19.8366 19.1264C19.8366 19.5659 20.0112 19.9873 20.3219 20.298C20.6326 20.6087 21.054 20.7833 21.4934 20.7833Z" fill="#F7FBFE"/>
</svg>
