<svg width="25" height="24" viewBox="0 0 25 24" fill="none" xmlns="http://www.w3.org/2000/svg">
<path d="M20.0117 9V5H4.01172V9H20.0117ZM20.0117 11H4.01172V19H20.0117V11ZM3.01172 3H21.0117C21.2769 3 21.5313 3.10536 21.7188 3.29289C21.9064 3.48043 22.0117 3.73478 22.0117 4V20C22.0117 20.2652 21.9064 20.5196 21.7188 20.7071C21.5313 20.8946 21.2769 21 21.0117 21H3.01172C2.7465 21 2.49215 20.8946 2.30461 20.7071C2.11708 20.5196 2.01172 20.2652 2.01172 20V4C2.01172 3.73478 2.11708 3.48043 2.30461 3.29289C2.49215 3.10536 2.7465 3 3.01172 3ZM5.01172 12H8.01172V17H5.01172V12ZM5.01172 6H7.01172V8H5.01172V6ZM9.01172 6H11.0117V8H9.01172V6Z" fill="#F87F28"/>
</svg>
