<svg width="93" height="16" viewBox="0 0 93 16" fill="none" xmlns="http://www.w3.org/2000/svg">
<path d="M4.45276 1.86766C4.45276 2.22072 4.34817 2.56586 4.1391 2.85941C3.94048 3.15286 3.64786 3.38168 3.3029 3.51677C2.96838 3.65185 2.59203 3.68718 2.23661 3.61833C1.87074 3.54948 1.53618 3.37948 1.27484 3.12988C1.02396 2.88019 0.846269 2.56215 0.773094 2.21591C0.69992 1.86967 0.731255 1.51078 0.877604 1.18461C1.0135 0.858443 1.25396 0.579746 1.55711 0.383543C1.87072 0.18744 2.22613 0.0827637 2.592 0.0827637C3.08332 0.0827637 3.56419 0.270838 3.90915 0.605537C4.25412 0.940337 4.45276 1.39426 4.45276 1.86766Z" fill="#A2BADD"/>
<path d="M15.2095 3.65265C16.2338 3.65265 17.0699 2.85349 17.0699 1.86766C17.0699 0.881927 16.2338 0.0827637 15.2095 0.0827637C14.1851 0.0827637 13.3489 0.881927 13.3489 1.86766C13.3489 2.85349 14.1851 3.65265 15.2095 3.65265Z" fill="#A2BADD"/>
<path d="M29.6871 1.86766C29.6871 2.22072 29.5826 2.56586 29.3735 2.85941C29.1644 3.15296 28.8823 3.38178 28.5373 3.51686C28.2029 3.65195 27.8265 3.68728 27.4607 3.61833C27.1053 3.54938 26.7707 3.37927 26.5094 3.12958C26.2586 2.87978 26.0809 2.56164 26.0077 2.2154C25.9345 1.86906 25.9659 1.51018 26.1122 1.18401C26.2481 0.857842 26.4885 0.579143 26.7917 0.383141C27.1053 0.187139 27.4606 0.0825632 27.8265 0.082764C28.0774 0.082764 28.3178 0.128928 28.5373 0.21865C28.7673 0.308371 28.9659 0.439843 29.1436 0.605637C29.3108 0.771331 29.4572 0.968135 29.5408 1.18471C29.6349 1.40129 29.6871 1.63332 29.6871 1.86766Z" fill="#A2BADD"/>
<path d="M42.3048 1.86766C42.3048 2.22072 42.2004 2.56586 41.9913 2.85941C41.7927 3.15286 41.5 3.38168 41.155 3.51677C40.8205 3.65185 40.4442 3.68718 40.0888 3.61833C39.7229 3.54948 39.3885 3.37948 39.1272 3.12988C38.8763 2.88019 38.6985 2.56215 38.6254 2.21591C38.5522 1.86967 38.5836 1.51078 38.73 1.18461C38.8659 0.858443 39.1062 0.579746 39.4093 0.383543C39.7229 0.187441 40.0783 0.0827638 40.4442 0.0827638C40.695 0.0826635 40.9355 0.12873 41.155 0.218351C41.385 0.308072 41.5835 0.439541 41.7612 0.605335C41.9285 0.771028 42.0748 0.967936 42.1585 1.18451C42.2525 1.40109 42.3048 1.63332 42.3048 1.86766Z" fill="#A2BADD"/>
<path d="M53.0615 3.65265C54.0859 3.65265 54.9222 2.85349 54.9222 1.86766C54.9222 0.881927 54.0859 0.0827637 53.0615 0.0827637C52.037 0.0827637 51.2007 0.881927 51.2007 1.86766C51.2007 2.85349 52.037 3.65265 53.0615 3.65265Z" fill="#A2BADD"/>
<path d="M67.5393 1.86766C67.5393 2.22072 67.4349 2.56586 67.2258 2.85941C67.0272 3.15286 66.7344 3.38168 66.3895 3.51677C66.055 3.65185 65.6786 3.68718 65.3232 3.61833C64.9574 3.54948 64.6228 3.37948 64.3615 3.12988C64.1106 2.88019 63.9329 2.56215 63.8598 2.21591C63.7866 1.86967 63.8179 1.51078 63.9643 1.18461C64.1002 0.858443 64.3406 0.579746 64.6438 0.383543C64.9573 0.18744 65.3127 0.0827637 65.6786 0.0827637C66.1699 0.0827637 66.6508 0.270838 66.9957 0.605537C67.3407 0.940337 67.5393 1.39426 67.5393 1.86766Z" fill="#A2BADD"/>
<path d="M80.1566 1.86766C80.1566 2.22072 80.052 2.56586 79.843 2.85941C79.6444 3.15286 79.3516 3.38168 79.0067 3.51677C78.6721 3.65185 78.2959 3.68718 77.9405 3.61833C77.5747 3.54948 77.2401 3.37948 76.9892 3.12988C76.7279 2.88019 76.5502 2.56215 76.477 2.21591C76.4039 1.86967 76.4457 1.51078 76.5815 1.18461C76.7174 0.858443 76.9579 0.579746 77.261 0.383543C77.5746 0.18744 77.93 0.0827637 78.2959 0.0827637C78.7872 0.0827637 79.2681 0.270838 79.613 0.605537C79.958 0.940337 80.1566 1.39426 80.1566 1.86766Z" fill="#A2BADD"/>
<path d="M17.0698 13.9854C17.0698 14.3384 16.9654 14.6835 16.7563 14.9771C16.5473 15.2706 16.265 15.4994 15.92 15.6344C15.5855 15.7696 15.2092 15.805 14.8538 15.736C14.488 15.6672 14.1536 15.4971 13.8922 15.2476C13.6414 14.998 13.4637 14.6799 13.3905 14.3336C13.3174 13.9873 13.3487 13.6284 13.495 13.3023C13.6309 12.9762 13.8714 12.6974 14.1745 12.5013C14.4881 12.3051 14.8435 12.2004 15.2093 12.2004C15.7006 12.2007 16.1814 12.3888 16.5264 12.7235C16.8713 13.0582 17.0698 13.512 17.0698 13.9854Z" fill="#A2BADD"/>
<path d="M29.6871 13.9854C29.6871 14.3385 29.5826 14.6836 29.3735 14.9772C29.1644 15.2707 28.8823 15.4995 28.5373 15.6345C28.2029 15.7696 27.8265 15.805 27.4607 15.736C27.1053 15.6671 26.7707 15.4969 26.5094 15.2473C26.2586 14.9976 26.0809 14.6794 26.0077 14.3331C25.9345 13.9867 25.9659 13.6279 26.1122 13.3017C26.2481 12.9756 26.4885 12.6969 26.7917 12.5008C27.1053 12.3048 27.4606 12.2002 27.8265 12.2004C28.3178 12.2007 28.7986 12.3888 29.1436 12.7236C29.4885 13.0583 29.6871 13.5121 29.6871 13.9854Z" fill="#A2BADD"/>
<path d="M42.3048 13.9854C42.3048 14.3384 42.2004 14.6835 41.9913 14.9771C41.7927 15.2706 41.5 15.4994 41.155 15.6344C40.8205 15.7696 40.4442 15.805 40.0888 15.736C39.7229 15.6672 39.3885 15.4971 39.1272 15.2476C38.8763 14.998 38.6985 14.6799 38.6254 14.3336C38.5522 13.9873 38.5836 13.6284 38.73 13.3023C38.8659 12.9762 39.1062 12.6974 39.4093 12.5013C39.7229 12.3051 40.0783 12.2004 40.4442 12.2004C40.9354 12.2004 41.4163 12.3885 41.7612 12.7232C42.1062 13.058 42.3048 13.512 42.3048 13.9854Z" fill="#A2BADD"/>
<path d="M54.9219 13.9854C54.9219 14.3384 54.8173 14.6835 54.6082 14.9771C54.3992 15.2706 54.1169 15.4994 53.7719 15.6344C53.4374 15.7696 53.0612 15.805 52.7058 15.736C52.3399 15.6672 52.0054 15.4971 51.7441 15.2476C51.4932 14.998 51.3155 14.6799 51.2423 14.3336C51.1692 13.9873 51.2005 13.6284 51.3468 13.3023C51.4827 12.9762 51.7232 12.6974 52.0263 12.5013C52.3399 12.3051 52.6953 12.2004 53.0612 12.2004C53.5525 12.2004 54.0333 12.3885 54.3783 12.7232C54.7232 13.058 54.9219 13.512 54.9219 13.9854Z" fill="#A2BADD"/>
<path d="M67.5393 13.9854C67.5393 14.3384 67.4349 14.6835 67.2258 14.9771C67.0272 15.2706 66.7344 15.4994 66.3895 15.6344C66.055 15.7696 65.6786 15.805 65.3232 15.736C64.9574 15.6672 64.6228 15.4971 64.3615 15.2476C64.1106 14.998 63.9329 14.6799 63.8598 14.3336C63.7866 13.9873 63.8179 13.6284 63.9643 13.3023C64.1002 12.9762 64.3406 12.6974 64.6438 12.5013C64.9573 12.3051 65.3127 12.2004 65.6786 12.2004C66.1699 12.2007 66.6508 12.3888 66.9957 12.7235C67.3407 13.0582 67.5393 13.512 67.5393 13.9854Z" fill="#A2BADD"/>
<path d="M80.1566 13.9854C80.1566 14.3384 80.052 14.6835 79.843 14.9771C79.6444 15.2706 79.3516 15.4994 79.0067 15.6344C78.6721 15.7696 78.2959 15.805 77.9405 15.736C77.5747 15.6672 77.2401 15.4971 76.9892 15.2476C76.7279 14.998 76.5502 14.6799 76.477 14.3336C76.4039 13.9873 76.4457 13.6284 76.5815 13.3023C76.7174 12.9762 76.9579 12.6974 77.261 12.5013C77.5746 12.3051 77.93 12.2004 78.2959 12.2004C78.7872 12.2007 79.2681 12.3888 79.613 12.7235C79.958 13.0582 80.1566 13.512 80.1566 13.9854Z" fill="#A2BADD"/>
<path d="M92.7738 13.9854C92.7738 14.3385 92.6692 14.6836 92.4602 14.9772C92.2615 15.2707 91.9689 15.4995 91.624 15.6345C91.2895 15.7696 90.9131 15.805 90.5577 15.736C90.1918 15.6671 89.8573 15.4969 89.596 15.2473C89.3451 14.9976 89.1674 14.6794 89.0942 14.3331C89.0211 13.9867 89.0628 13.6279 89.1987 13.3017C89.3346 12.9756 89.5751 12.6969 89.8887 12.5008C90.1918 12.3048 90.5472 12.2002 90.9131 12.2004C91.4044 12.2007 91.8853 12.3888 92.2302 12.7236C92.5752 13.0583 92.7738 13.5121 92.7738 13.9854Z" fill="#A2BADD"/>
</svg>
