<svg width="1350" height="651" viewBox="0 0 1350 651" fill="none" xmlns="http://www.w3.org/2000/svg">
<path d="M1256.11 604.777H1265.95" stroke="#A2BADD" stroke-width="2" stroke-linecap="round" stroke-linejoin="round"/>
<path d="M1261.03 599.712V609.844" stroke="#A2BADD" stroke-width="2" stroke-linecap="round" stroke-linejoin="round"/>
<path d="M1256.11 582.871H1265.95" stroke="#A2BADD" stroke-width="2" stroke-linecap="round" stroke-linejoin="round"/>
<path d="M1261.03 577.804V587.936" stroke="#A2BADD" stroke-width="2" stroke-linecap="round" stroke-linejoin="round"/>
<path d="M1256.11 560.964H1265.95" stroke="#A2BADD" stroke-width="2" stroke-linecap="round" stroke-linejoin="round"/>
<path d="M1261.03 555.899V566.031" stroke="#A2BADD" stroke-width="2" stroke-linecap="round" stroke-linejoin="round"/>
<path d="M771.149 95.6357V105.768" stroke="#A2BADD" stroke-width="2" stroke-linecap="round" stroke-linejoin="round"/>
<path d="M776.072 100.701H766.232" stroke="#A2BADD" stroke-width="2" stroke-linecap="round" stroke-linejoin="round"/>
<path d="M453.466 284.627V294.76" stroke="#EAF1FD" stroke-width="2" stroke-linecap="round" stroke-linejoin="round"/>
<path d="M458.387 289.692H448.547" stroke="#EAF1FD" stroke-width="2" stroke-linecap="round" stroke-linejoin="round"/>
<path d="M381.435 482.073V492.206" stroke="#F87F28" stroke-width="2" stroke-linecap="round" stroke-linejoin="round"/>
<path d="M386.355 487.14H376.516" stroke="#F87F28" stroke-width="2" stroke-linecap="round" stroke-linejoin="round"/>
<path d="M680.088 364.821V374.954" stroke="#F87F28" stroke-width="2" stroke-linecap="round" stroke-linejoin="round"/>
<path d="M685.009 369.886H675.169" stroke="#F87F28" stroke-width="2" stroke-linecap="round" stroke-linejoin="round"/>
<path d="M878.109 242.768V252.901" stroke="#F87F28" stroke-width="2" stroke-linecap="round" stroke-linejoin="round"/>
<path d="M883.033 247.833H873.193" stroke="#F87F28" stroke-width="2" stroke-linecap="round" stroke-linejoin="round"/>
<path d="M1141.41 38.166V48.2988" stroke="#F87F28" stroke-width="2" stroke-linecap="round" stroke-linejoin="round"/>
<path d="M1146.32 43.2312H1136.48" stroke="#F87F28" stroke-width="2" stroke-linecap="round" stroke-linejoin="round"/>
<path d="M295.019 215.895V226.028" stroke="#F87F28" stroke-width="2" stroke-linecap="round" stroke-linejoin="round"/>
<path d="M299.939 220.961H290.1" stroke="#F87F28" stroke-width="2" stroke-linecap="round" stroke-linejoin="round"/>
<path d="M448.547 63.4135V73.5456" stroke="#BDD7FE" stroke-width="2" stroke-linecap="round" stroke-linejoin="round"/>
<path d="M453.466 68.4788H443.626" stroke="#BDD7FE" stroke-width="2" stroke-linecap="round" stroke-linejoin="round"/>
<path d="M730.282 637.929V648.061" stroke="#FAFAFA" stroke-opacity="0.28" stroke-width="2" stroke-linecap="round" stroke-linejoin="round"/>
<path d="M735.206 642.994H725.366" stroke="#FAFAFA" stroke-opacity="0.28" stroke-width="2" stroke-linecap="round" stroke-linejoin="round"/>
<path d="M751.562 637.929V648.061" stroke="#FAFAFA" stroke-opacity="0.28" stroke-width="2" stroke-linecap="round" stroke-linejoin="round"/>
<path d="M756.478 642.994H746.639" stroke="#FAFAFA" stroke-opacity="0.28" stroke-width="2" stroke-linecap="round" stroke-linejoin="round"/>
<path d="M772.835 637.929V648.061" stroke="#FAFAFA" stroke-opacity="0.28" stroke-width="2" stroke-linecap="round" stroke-linejoin="round"/>
<path d="M777.751 642.994H767.912" stroke="#FAFAFA" stroke-opacity="0.28" stroke-width="2" stroke-linecap="round" stroke-linejoin="round"/>
<path d="M156.348 183.232V193.364" stroke="#F87F28" stroke-width="2" stroke-linecap="round" stroke-linejoin="round"/>
<path d="M161.269 188.297H151.429" stroke="#F87F28" stroke-width="2" stroke-linecap="round" stroke-linejoin="round"/>
<path d="M63.5889 139.096H53.7495" stroke="#EAF1FD" stroke-width="2" stroke-linecap="round" stroke-linejoin="round"/>
<path d="M58.6702 144.163V134.031" stroke="#EAF1FD" stroke-width="2" stroke-linecap="round" stroke-linejoin="round"/>
<path d="M63.5889 161.004H53.7495" stroke="#EAF1FD" stroke-width="2" stroke-linecap="round" stroke-linejoin="round"/>
<path d="M58.6702 166.069V155.937" stroke="#EAF1FD" stroke-width="2" stroke-linecap="round" stroke-linejoin="round"/>
<path d="M63.5889 182.91H53.7495" stroke="#EAF1FD" stroke-width="2" stroke-linecap="round" stroke-linejoin="round"/>
<path d="M58.6702 187.977V177.844" stroke="#EAF1FD" stroke-width="2" stroke-linecap="round" stroke-linejoin="round"/>
<path d="M285.465 363.529C285.465 363.868 285.367 364.2 285.184 364.483C285 364.766 284.74 364.986 284.434 365.116C284.13 365.246 283.794 365.28 283.47 365.213C283.147 365.147 282.849 364.983 282.616 364.743C282.383 364.503 282.224 364.196 282.16 363.863C282.096 363.53 282.128 363.184 282.255 362.87C282.382 362.557 282.595 362.288 282.87 362.1C283.144 361.911 283.467 361.81 283.797 361.81C284.016 361.81 284.233 361.855 284.435 361.941C284.638 362.027 284.821 362.154 284.976 362.313C285.132 362.473 285.254 362.663 285.338 362.871C285.422 363.08 285.465 363.303 285.465 363.529Z" fill="#A2BADD"/>
<path d="M296.791 363.529C296.791 363.868 296.693 364.2 296.51 364.483C296.326 364.766 296.066 364.986 295.761 365.116C295.456 365.246 295.121 365.28 294.797 365.213C294.473 365.147 294.176 364.983 293.942 364.743C293.709 364.503 293.55 364.196 293.486 363.863C293.422 363.53 293.455 363.184 293.582 362.87C293.708 362.557 293.922 362.288 294.196 362.1C294.471 361.911 294.793 361.81 295.123 361.81C295.342 361.81 295.559 361.855 295.762 361.941C295.964 362.027 296.148 362.154 296.303 362.313C296.458 362.473 296.58 362.663 296.664 362.871C296.748 363.08 296.791 363.303 296.791 363.529Z" fill="#A2BADD"/>
<path d="M308.122 363.529C308.122 363.868 308.023 364.2 307.841 364.483C307.657 364.766 307.397 364.986 307.091 365.116C306.787 365.246 306.451 365.28 306.127 365.214C305.804 365.147 305.507 364.984 305.274 364.744C305.04 364.503 304.881 364.197 304.817 363.863C304.752 363.53 304.786 363.185 304.912 362.871C305.038 362.557 305.252 362.289 305.526 362.1C305.801 361.911 306.123 361.81 306.453 361.81C306.672 361.81 306.889 361.854 307.091 361.941C307.294 362.027 307.478 362.154 307.633 362.313C307.788 362.473 307.911 362.662 307.995 362.871C308.078 363.08 308.122 363.303 308.122 363.529Z" fill="#A2BADD"/>
<path d="M285.465 375.191C285.465 375.531 285.367 375.863 285.184 376.146C285.001 376.428 284.74 376.649 284.435 376.779C284.13 376.91 283.795 376.943 283.471 376.877C283.147 376.811 282.85 376.647 282.617 376.407C282.383 376.166 282.224 375.86 282.16 375.527C282.096 375.194 282.128 374.848 282.255 374.534C282.381 374.22 282.595 373.952 282.87 373.763C283.144 373.574 283.467 373.474 283.797 373.474C284.239 373.474 284.663 373.655 284.976 373.977C285.289 374.299 285.465 374.736 285.465 375.191Z" fill="#A2BADD"/>
<path d="M296.791 375.191C296.791 375.531 296.694 375.863 296.51 376.146C296.327 376.428 296.066 376.649 295.762 376.779C295.456 376.91 295.121 376.943 294.798 376.877C294.474 376.811 294.176 376.647 293.943 376.407C293.71 376.166 293.55 375.86 293.486 375.527C293.422 375.194 293.455 374.848 293.582 374.534C293.708 374.22 293.922 373.952 294.196 373.763C294.471 373.574 294.793 373.474 295.123 373.474C295.566 373.474 295.99 373.655 296.303 373.977C296.615 374.299 296.791 374.736 296.791 375.191Z" fill="#A2BADD"/>
<path d="M308.122 375.191C308.122 375.531 308.024 375.863 307.841 376.146C307.658 376.428 307.397 376.649 307.092 376.779C306.788 376.91 306.452 376.943 306.128 376.877C305.804 376.811 305.507 376.647 305.274 376.407C305.04 376.167 304.881 375.861 304.817 375.528C304.752 375.194 304.786 374.849 304.912 374.534C305.038 374.221 305.252 373.952 305.526 373.763C305.8 373.575 306.123 373.474 306.453 373.474C306.672 373.474 306.889 373.518 307.091 373.604C307.294 373.691 307.478 373.817 307.633 373.976C307.788 374.136 307.91 374.326 307.994 374.534C308.078 374.742 308.122 374.966 308.122 375.191Z" fill="#A2BADD"/>
<path d="M285.465 386.855C285.465 387.195 285.367 387.527 285.184 387.809C285.001 388.092 284.74 388.312 284.435 388.443C284.13 388.573 283.795 388.607 283.471 388.541C283.147 388.474 282.85 388.311 282.617 388.071C282.383 387.831 282.224 387.524 282.16 387.19C282.096 386.857 282.128 386.511 282.255 386.198C282.381 385.884 282.595 385.616 282.87 385.427C283.144 385.238 283.467 385.137 283.797 385.137C284.239 385.137 284.663 385.318 284.976 385.641C285.289 385.963 285.465 386.399 285.465 386.855Z" fill="#A2BADD"/>
<path d="M296.791 386.855C296.791 387.195 296.694 387.527 296.51 387.809C296.327 388.092 296.066 388.312 295.762 388.443C295.456 388.573 295.121 388.607 294.798 388.541C294.474 388.474 294.176 388.311 293.943 388.071C293.71 387.831 293.55 387.524 293.486 387.19C293.422 386.857 293.455 386.511 293.582 386.198C293.708 385.884 293.922 385.616 294.196 385.427C294.471 385.238 294.793 385.137 295.123 385.137C295.566 385.137 295.99 385.318 296.303 385.641C296.615 385.963 296.791 386.399 296.791 386.855Z" fill="#A2BADD"/>
<path d="M308.122 386.855C308.122 387.195 308.024 387.527 307.841 387.809C307.658 388.092 307.397 388.312 307.092 388.443C306.788 388.573 306.452 388.607 306.128 388.541C305.804 388.474 305.507 388.311 305.274 388.071C305.04 387.831 304.881 387.524 304.817 387.191C304.752 386.858 304.786 386.512 304.912 386.198C305.038 385.885 305.252 385.616 305.526 385.427C305.8 385.239 306.123 385.137 306.453 385.137C306.672 385.137 306.889 385.182 307.091 385.268C307.294 385.354 307.478 385.481 307.633 385.64C307.788 385.8 307.91 385.989 307.994 386.197C308.078 386.406 308.122 386.629 308.122 386.855Z" fill="#A2BADD"/>
<path d="M62.038 1.70424C62.0378 2.04108 61.9407 2.3703 61.7589 2.6503C61.5771 2.93022 61.3187 3.14848 61.0165 3.27724C60.7143 3.40607 60.3817 3.43976 60.0609 3.37399C59.7402 3.30822 59.4455 3.14606 59.2142 2.90788C58.9829 2.6697 58.8254 2.36627 58.7615 2.03588C58.6977 1.70556 58.7304 1.36316 58.8555 1.05189C58.9806 0.740685 59.1925 0.474674 59.4644 0.287397C59.7362 0.100193 60.056 0.000146846 60.383 3.64396e-07C60.6004 -0.000146117 60.8157 0.0438715 61.0165 0.12949C61.2174 0.215109 61.3998 0.340642 61.5535 0.498916C61.7072 0.65719 61.8291 0.845127 61.9122 1.05189C61.9954 1.25872 62.0381 1.48042 62.038 1.70424Z" fill="#A2BADD"/>
<path d="M71.6177 3.40848C72.532 3.40848 73.2733 2.64546 73.2733 1.70424C73.2733 0.763024 72.532 0 71.6177 0C70.7042 0 69.9629 0.763024 69.9629 1.70424C69.9629 2.64546 70.7042 3.40848 71.6177 3.40848Z" fill="#A2BADD"/>
<path d="M84.5067 1.70424C84.5067 2.0413 84.4092 2.37081 84.2278 2.65103C84.0457 2.93132 83.7874 3.14973 83.485 3.2787C83.1827 3.40775 82.8497 3.44144 82.5288 3.37575C82.208 3.30998 81.9127 3.14767 81.6815 2.90927C81.4496 2.67095 81.2923 2.36729 81.2283 2.03668C81.1643 1.70615 81.1977 1.36345 81.3229 1.05203C81.4481 0.740613 81.6601 0.474455 81.9319 0.287251C82.2044 0.0999742 82.5246 0 82.8518 0C83.2908 0 83.7113 0.179586 84.0215 0.499136C84.3324 0.81876 84.5067 1.25227 84.5067 1.70424Z" fill="#A2BADD"/>
<path d="M95.7434 1.70424C95.7434 2.0413 95.6459 2.37081 95.4645 2.65103C95.2824 2.93132 95.0241 3.14973 94.7218 3.2787C94.4194 3.40775 94.0864 3.44144 93.7656 3.37575C93.4447 3.30998 93.1494 3.14767 92.9182 2.90927C92.6863 2.67095 92.529 2.36729 92.465 2.03668C92.401 1.70615 92.4337 1.36345 92.5596 1.05203C92.6849 0.740613 92.8969 0.474455 93.1686 0.287251C93.4411 0.0999742 93.7613 0 94.0886 0C94.3056 0 94.5211 0.0440919 94.7218 0.12971C94.9224 0.215402 95.1045 0.340936 95.2582 0.499136C95.4119 0.65741 95.5343 0.845274 95.6175 1.05203C95.7007 1.25879 95.7434 1.48042 95.7434 1.70424Z" fill="#A2BADD"/>
<path d="M105.323 3.40848C106.238 3.40848 106.978 2.64546 106.978 1.70424C106.978 0.763024 106.238 0 105.323 0C104.41 0 103.668 0.763024 103.668 1.70424C103.668 2.64546 104.41 3.40848 105.323 3.40848Z" fill="#A2BADD"/>
<path d="M118.213 1.70424C118.213 2.0413 118.115 2.37081 117.934 2.65103C117.752 2.93132 117.493 3.14973 117.191 3.2787C116.889 3.40775 116.556 3.44144 116.235 3.37575C115.913 3.30998 115.619 3.14767 115.387 2.90927C115.156 2.67095 114.998 2.36729 114.934 2.03668C114.87 1.70615 114.903 1.36345 115.028 1.05203C115.153 0.740613 115.366 0.474455 115.638 0.287252C115.91 0.0999746 116.23 3.64396e-07 116.557 3.64396e-07C116.775 -0.000146117 116.99 0.0438715 117.191 0.12949C117.392 0.215109 117.574 0.340642 117.728 0.498916C117.882 0.65719 118.003 0.845127 118.087 1.05189C118.17 1.25872 118.213 1.48042 118.213 1.70424Z" fill="#A2BADD"/>
<path d="M129.447 1.70424C129.447 2.0413 129.35 2.37081 129.168 2.65103C128.986 2.93132 128.727 3.14973 128.425 3.2787C128.123 3.40775 127.79 3.44144 127.469 3.37575C127.148 3.30998 126.853 3.14767 126.621 2.90927C126.39 2.67095 126.232 2.36729 126.169 2.03668C126.105 1.70615 126.138 1.36345 126.263 1.05203C126.388 0.740613 126.6 0.474455 126.873 0.287252C127.144 0.0999746 127.464 3.64396e-07 127.792 3.64396e-07C128.009 -0.000146117 128.224 0.0438715 128.425 0.12949C128.626 0.215109 128.808 0.340642 128.962 0.498916C129.116 0.65719 129.238 0.845127 129.321 1.05189C129.404 1.25872 129.447 1.48042 129.447 1.70424Z" fill="#A2BADD"/>
<path d="M62.038 13.2739C62.0378 13.6107 61.9407 13.9399 61.7589 14.2199C61.5771 14.4999 61.3187 14.7181 61.0165 14.847C60.7143 14.9758 60.3817 15.0094 60.0609 14.9436C59.7402 14.8779 59.4455 14.7157 59.2142 14.4775C58.9829 14.2393 58.8254 13.9359 58.7615 13.6056C58.6977 13.2752 58.7304 12.9328 58.8555 12.6216C58.9806 12.3104 59.1925 12.0443 59.4644 11.8571C59.7362 11.6698 60.056 11.5699 60.383 11.5696C60.822 11.5696 61.2429 11.7492 61.5533 12.0689C61.8636 12.3884 62.038 12.8219 62.038 13.2739Z" fill="#A2BADD"/>
<path d="M73.2735 13.2739C73.2735 13.6109 73.176 13.9405 72.9946 14.2208C72.8124 14.501 72.5542 14.7194 72.2518 14.8484C71.9494 14.9774 71.6165 15.0112 71.2956 14.9454C70.974 14.8796 70.6795 14.7173 70.4483 14.479C70.2163 14.2407 70.0591 13.9369 69.9951 13.6064C69.931 13.2758 69.9638 12.9331 70.089 12.6218C70.2142 12.3103 70.4269 12.0442 70.6987 11.8569C70.9712 11.6696 71.2906 11.5696 71.6179 11.5696C72.0569 11.5699 72.4781 11.7495 72.7883 12.0691C73.0985 12.3886 73.2728 12.822 73.2735 13.2739Z" fill="#A2BADD"/>
<path d="M84.5067 13.2739C84.5067 13.6109 84.4092 13.9405 84.2278 14.2208C84.0457 14.501 83.7874 14.7194 83.485 14.8484C83.1827 14.9774 82.8497 15.0112 82.5288 14.9454C82.208 14.8796 81.9127 14.7173 81.6815 14.479C81.4496 14.2407 81.2923 13.9369 81.2283 13.6064C81.1643 13.2758 81.1977 12.9331 81.3229 12.6218C81.4481 12.3103 81.6601 12.0442 81.9319 11.8569C82.2044 11.6696 82.5246 11.5696 82.8518 11.5696C83.2901 11.5699 83.7113 11.7495 84.0215 12.0691C84.3317 12.3886 84.506 12.822 84.5067 13.2739Z" fill="#A2BADD"/>
<path d="M95.7434 13.2739C95.7434 13.6109 95.6459 13.9405 95.4645 14.2208C95.2824 14.501 95.0241 14.7194 94.7218 14.8484C94.4194 14.9774 94.0864 15.0112 93.7656 14.9454C93.4447 14.8796 93.1494 14.7173 92.9182 14.479C92.6863 14.2407 92.529 13.9369 92.465 13.6064C92.401 13.2758 92.4337 12.9331 92.5596 12.6218C92.6849 12.3103 92.8969 12.0442 93.1686 11.8569C93.4411 11.6696 93.7613 11.5696 94.0886 11.5696C94.5268 11.5699 94.948 11.7495 95.2582 12.0691C95.5684 12.3886 95.7427 12.822 95.7434 13.2739Z" fill="#A2BADD"/>
<path d="M106.977 13.2739C106.977 13.611 106.881 13.9405 106.698 14.2208C106.516 14.5011 106.258 14.7195 105.956 14.8485C105.653 14.9775 105.32 15.0112 104.999 14.9453C104.678 14.8795 104.383 14.7171 104.152 14.4787C103.92 14.2402 103.763 13.9365 103.699 13.6059C103.636 13.2752 103.668 12.9325 103.794 12.6212C103.919 12.3097 104.131 12.0437 104.403 11.8565C104.676 11.6693 104.996 11.5695 105.323 11.5696C105.762 11.5699 106.183 11.7495 106.493 12.0691C106.803 12.3887 106.977 12.8221 106.977 13.2739Z" fill="#A2BADD"/>
<path d="M118.213 13.2739C118.213 13.6109 118.115 13.9405 117.934 14.2208C117.752 14.501 117.493 14.7194 117.191 14.8484C116.889 14.9774 116.556 15.0112 116.235 14.9454C115.913 14.8796 115.619 14.7173 115.387 14.479C115.156 14.2407 114.998 13.9369 114.934 13.6064C114.87 13.2758 114.903 12.9331 115.028 12.6218C115.153 12.3103 115.366 12.0442 115.638 11.8569C115.91 11.6696 116.23 11.5696 116.557 11.5696C116.996 11.5696 117.417 11.7492 117.727 12.0689C118.038 12.3884 118.213 12.8219 118.213 13.2739Z" fill="#A2BADD"/>
<path d="M129.447 13.2739C129.447 13.6109 129.35 13.9405 129.168 14.2208C128.986 14.501 128.727 14.7194 128.425 14.8484C128.123 14.9774 127.79 15.0112 127.469 14.9454C127.148 14.8796 126.853 14.7173 126.621 14.479C126.39 14.2407 126.232 13.9369 126.169 13.6064C126.105 13.2758 126.138 12.9331 126.263 12.6218C126.388 12.3103 126.6 12.0442 126.873 11.8569C127.144 11.6696 127.464 11.5696 127.792 11.5696C128.231 11.5696 128.652 11.7492 128.962 12.0689C129.272 12.3884 129.447 12.8219 129.447 13.2739Z" fill="#A2BADD"/>
<path d="M62.038 24.8435C62.0372 25.1802 61.9395 25.5091 61.7573 25.7886C61.5751 26.0681 61.3165 26.2858 61.0142 26.4141C60.7119 26.5424 60.3795 26.5756 60.059 26.5095C59.7384 26.4434 59.444 26.2808 59.213 26.0425C58.9821 25.8043 58.8249 25.5008 58.7613 25.1706C58.6977 24.8403 58.7306 24.4981 58.8558 24.187C58.981 23.876 59.1929 23.6102 59.4647 23.423C59.7365 23.236 60.0561 23.1361 60.383 23.1359C60.6007 23.1359 60.8161 23.1801 61.0172 23.2659C61.2181 23.3518 61.4007 23.4776 61.5544 23.6362C61.7082 23.7949 61.83 23.9831 61.9129 24.1903C61.996 24.3974 62.0384 24.6194 62.038 24.8435Z" fill="#A2BADD"/>
<path d="M73.2735 24.8435C73.2728 25.1805 73.1746 25.5096 72.9925 25.7894C72.8104 26.0692 72.5521 26.2871 72.249 26.4156C71.9467 26.5441 71.6144 26.5773 71.2935 26.5112C70.9727 26.445 70.6781 26.2824 70.4469 26.044C70.2157 25.8055 70.0585 25.5018 69.9951 25.1714C69.9311 24.8408 69.9645 24.4984 70.0898 24.1872C70.215 23.876 70.427 23.61 70.6995 23.4229C70.9712 23.2358 71.2914 23.1359 71.618 23.1359C71.8357 23.136 72.0512 23.1802 72.2526 23.2662C72.4532 23.3521 72.6361 23.4779 72.7897 23.6365C72.9434 23.7951 73.0651 23.9833 73.1483 24.1904C73.2308 24.3975 73.2735 24.6194 73.2735 24.8435Z" fill="#A2BADD"/>
<path d="M84.5067 24.8435C84.5059 25.1805 84.4085 25.5098 84.2256 25.7896C84.0435 26.0695 83.7845 26.2874 83.4822 26.4157C83.1798 26.5442 82.8468 26.5773 82.526 26.511C82.2051 26.4448 81.9106 26.282 81.6793 26.0434C81.4488 25.8048 81.2916 25.5009 81.2283 25.1703C81.1642 24.8397 81.1977 24.4971 81.3236 24.186C81.4488 23.8748 81.6615 23.6089 81.9333 23.422C82.2058 23.2351 82.526 23.1356 82.8532 23.1359C83.0709 23.1362 83.2858 23.1806 83.4864 23.2667C83.6871 23.3527 83.8699 23.4785 84.0236 23.6371C84.1765 23.7957 84.2982 23.9838 84.3814 24.1908C84.464 24.3978 84.5067 24.6196 84.5067 24.8435Z" fill="#A2BADD"/>
<path d="M95.7433 24.8435C95.7425 25.1805 95.6451 25.5096 95.4622 25.7894C95.2801 26.0692 95.0218 26.2871 94.7195 26.4156C94.4164 26.5441 94.0841 26.5773 93.7633 26.5112C93.4424 26.445 93.1479 26.2824 92.9166 26.044C92.6854 25.8055 92.5282 25.5018 92.4649 25.1714C92.4008 24.8408 92.4343 24.4984 92.5595 24.1872C92.6847 23.876 92.8967 23.61 93.1692 23.4229C93.441 23.2358 93.7611 23.1359 94.0884 23.1359C94.3054 23.136 94.521 23.1802 94.7223 23.2662C94.9229 23.3521 95.1058 23.4779 95.2595 23.6365C95.4131 23.7951 95.5348 23.9833 95.618 24.1904C95.7006 24.3975 95.7433 24.6194 95.7433 24.8435Z" fill="#A2BADD"/>
<path d="M106.977 24.8435C106.977 25.1805 106.879 25.5097 106.697 25.7895C106.514 26.0693 106.256 26.2872 105.953 26.4157C105.65 26.5441 105.318 26.5773 104.997 26.5111C104.676 26.4449 104.382 26.2822 104.151 26.0437C103.919 25.8051 103.762 25.5014 103.699 25.1708C103.636 24.8403 103.668 24.4978 103.794 24.1866C103.919 23.8754 104.131 23.6094 104.404 23.4225C104.676 23.2355 104.996 23.1357 105.323 23.1359C105.541 23.136 105.756 23.1803 105.957 23.2662C106.158 23.3521 106.341 23.478 106.494 23.6365C106.648 23.7951 106.77 23.9834 106.852 24.1905C106.935 24.3976 106.978 24.6195 106.977 24.8435Z" fill="#A2BADD"/>
<path d="M118.213 24.8435C118.213 25.1806 118.115 25.51 117.934 25.7903C117.752 26.0705 117.493 26.289 117.191 26.418C116.889 26.547 116.556 26.5807 116.235 26.515C115.913 26.4492 115.619 26.2869 115.387 26.0486C115.156 25.8102 114.998 25.5066 114.934 25.176C114.87 24.8454 114.903 24.5027 115.028 24.1913C115.153 23.8799 115.366 23.6137 115.638 23.4265C115.91 23.2392 116.23 23.1393 116.557 23.1393C116.996 23.1393 117.417 23.3188 117.727 23.6384C118.038 23.958 118.213 24.3915 118.213 24.8435Z" fill="#A2BADD"/>
<path d="M129.447 24.8435C129.447 25.1806 129.35 25.51 129.168 25.7903C128.986 26.0705 128.727 26.289 128.425 26.418C128.123 26.547 127.79 26.5807 127.469 26.515C127.148 26.4492 126.853 26.2869 126.621 26.0486C126.39 25.8102 126.232 25.5066 126.169 25.176C126.105 24.8454 126.138 24.5027 126.263 24.1913C126.388 23.8799 126.6 23.6137 126.873 23.4265C127.144 23.2392 127.464 23.1393 127.792 23.1393C128.231 23.1393 128.652 23.3188 128.962 23.6384C129.272 23.958 129.447 24.3915 129.447 24.8435Z" fill="#A2BADD"/>
<path d="M62.038 36.413C62.0378 36.7498 61.9407 37.079 61.7589 37.3587C61.5771 37.6392 61.3187 37.8574 61.0165 37.9863C60.7143 38.1145 60.3817 38.1482 60.0609 38.083C59.7402 38.0171 59.4455 37.8545 59.2142 37.6165C58.9829 37.3784 58.8254 37.075 58.7615 36.7446C58.6977 36.4143 58.7304 36.0719 58.8555 35.7606C58.9806 35.4494 59.1925 35.1834 59.4644 34.9961C59.7362 34.8089 60.056 34.7089 60.383 34.7087C60.6004 34.7086 60.8157 34.7526 61.0165 34.8382C61.2174 34.9239 61.3998 35.0494 61.5535 35.2077C61.7072 35.3659 61.8291 35.5539 61.9122 35.7606C61.9954 35.9675 62.0381 36.1892 62.038 36.413Z" fill="#A2BADD"/>
<path d="M73.2735 36.413C73.2735 36.75 73.176 37.0796 72.9946 37.3601C72.8124 37.6399 72.5542 37.8582 72.2518 37.9878C71.9494 38.1167 71.6165 38.1504 71.2956 38.0845C70.974 38.0186 70.6795 37.8567 70.4483 37.6179C70.2163 37.3799 70.0591 37.076 69.9951 36.7454C69.931 36.4149 69.9638 36.0722 70.089 35.7608C70.2142 35.4494 70.4269 35.1832 70.6987 34.9959C70.9712 34.8087 71.2906 34.7087 71.6179 34.7087C72.0569 34.7087 72.4781 34.8883 72.7883 35.2079C73.0992 35.5275 73.2735 35.961 73.2735 36.413Z" fill="#A2BADD"/>
<path d="M84.5067 36.413C84.5067 36.75 84.4092 37.0796 84.2278 37.3601C84.0457 37.6399 83.7874 37.8582 83.485 37.9878C83.1827 38.1167 82.8497 38.1504 82.5288 38.0845C82.208 38.0186 81.9127 37.8567 81.6815 37.6179C81.4496 37.3799 81.2923 37.076 81.2283 36.7454C81.1643 36.4149 81.1977 36.0722 81.3229 35.7608C81.4481 35.4494 81.6601 35.1832 81.9319 34.9959C82.2044 34.8087 82.5246 34.7087 82.8518 34.7087C83.2908 34.7087 83.7113 34.8883 84.0215 35.2079C84.3324 35.5275 84.5067 35.961 84.5067 36.413Z" fill="#A2BADD"/>
<path d="M95.7434 36.413C95.7434 36.75 95.6459 37.0796 95.4645 37.3601C95.2824 37.6399 95.0241 37.8582 94.7218 37.9878C94.4194 38.1167 94.0864 38.1504 93.7656 38.0845C93.4447 38.0186 93.1494 37.8567 92.9182 37.6179C92.6863 37.3799 92.529 37.076 92.465 36.7454C92.401 36.4149 92.4337 36.0722 92.5596 35.7608C92.6849 35.4494 92.8969 35.1832 93.1686 34.9959C93.4411 34.8087 93.7613 34.7087 94.0886 34.7087C94.3056 34.7087 94.5211 34.7528 94.7218 34.8385C94.9224 34.9241 95.1045 35.0497 95.2582 35.2079C95.4119 35.3662 95.5343 35.554 95.6175 35.7608C95.7007 35.9675 95.7434 36.1892 95.7434 36.413Z" fill="#A2BADD"/>
<path d="M106.977 36.413C106.977 36.75 106.881 37.0796 106.698 37.3601C106.516 37.6399 106.258 37.8589 105.956 37.9878C105.653 38.1167 105.32 38.1504 104.999 38.0845C104.678 38.0186 104.383 37.856 104.152 37.6179C103.92 37.3792 103.763 37.0756 103.699 36.7449C103.636 36.4143 103.668 36.0716 103.794 35.7602C103.919 35.4488 104.131 35.1827 104.403 34.9956C104.676 34.8083 104.996 34.7086 105.323 34.7087C105.54 34.7087 105.756 34.7528 105.956 34.8385C106.157 34.9241 106.34 35.0497 106.493 35.208C106.646 35.3662 106.769 35.5541 106.851 35.7608C106.935 35.9676 106.977 36.1892 106.977 36.413Z" fill="#A2BADD"/>
<path d="M118.213 36.413C118.213 36.75 118.115 37.0796 117.934 37.3601C117.752 37.6399 117.493 37.8582 117.191 37.9878C116.889 38.1167 116.556 38.1504 116.235 38.0845C115.913 38.0186 115.619 37.8567 115.387 37.6179C115.156 37.3799 114.998 37.076 114.934 36.7454C114.87 36.4149 114.903 36.0722 115.028 35.7608C115.153 35.4494 115.366 35.1832 115.638 34.9959C115.91 34.8087 116.23 34.7087 116.557 34.7087C116.775 34.7086 116.99 34.7526 117.191 34.8382C117.392 34.9239 117.574 35.0494 117.728 35.2077C117.882 35.3659 118.003 35.5539 118.087 35.7606C118.17 35.9675 118.213 36.1892 118.213 36.413Z" fill="#A2BADD"/>
<path d="M129.447 36.413C129.447 36.75 129.35 37.0796 129.168 37.3601C128.986 37.6399 128.727 37.8582 128.425 37.9878C128.123 38.1167 127.79 38.1504 127.469 38.0845C127.148 38.0186 126.853 37.8567 126.621 37.6179C126.39 37.3799 126.232 37.076 126.169 36.7454C126.105 36.4149 126.138 36.0722 126.263 35.7608C126.388 35.4494 126.6 35.1832 126.873 34.9959C127.144 34.8087 127.464 34.7087 127.792 34.7087C128.009 34.7086 128.224 34.7526 128.425 34.8382C128.626 34.9239 128.808 35.0494 128.962 35.2077C129.116 35.3659 129.238 35.5539 129.321 35.7606C129.404 35.9675 129.447 36.1892 129.447 36.413Z" fill="#A2BADD"/>
<path d="M62.038 47.9815C62.038 48.3185 61.941 48.648 61.7593 48.9278C61.5776 49.2083 61.3193 49.4266 61.0171 49.5555C60.7148 49.6844 60.3823 49.7181 60.0614 49.6522C59.7406 49.587 59.4459 49.4244 59.2145 49.1864C58.9831 48.9483 58.8256 48.6451 58.7616 48.3148C58.6977 47.9845 58.7304 47.6417 58.8554 47.3304C58.9804 47.0192 59.1924 46.7533 59.4642 46.5658C59.7362 46.3783 60.0559 46.2787 60.383 46.2787C60.6003 46.278 60.8155 46.3219 61.0163 46.4076C61.2171 46.4933 61.3995 46.6185 61.5532 46.7767C61.7069 46.9349 61.8288 47.1232 61.912 47.3297C61.9952 47.5362 62.038 47.7582 62.038 47.9815Z" fill="#A2BADD"/>
<path d="M71.6177 49.6866C72.532 49.6866 73.2733 48.9242 73.2733 47.9823C73.2733 47.0412 72.532 46.2787 71.6177 46.2787C70.7042 46.2787 69.9629 47.0412 69.9629 47.9823C69.9629 48.9242 70.7042 49.6866 71.6177 49.6866Z" fill="#A2BADD"/>
<path d="M84.5066 47.9816C84.5066 48.3192 84.4099 48.6488 84.2277 48.9286C84.0463 49.2091 83.788 49.4281 83.4857 49.557C83.1833 49.6859 82.8504 49.7196 82.5295 49.6544C82.2079 49.5885 81.9134 49.4266 81.6814 49.1879C81.4502 48.9498 81.2923 48.6459 81.2282 48.3156C81.1642 47.9845 81.1969 47.6418 81.3221 47.3305C81.4474 47.0192 81.6601 46.7526 81.9319 46.5659C82.2043 46.3784 82.5245 46.2787 82.8518 46.2787C83.29 46.2787 83.7112 46.4582 84.0214 46.7775C84.3316 47.0968 84.5059 47.5297 84.5066 47.9816Z" fill="#A2BADD"/>
<path d="M95.7434 47.9816C95.7434 48.3192 95.6467 48.6488 95.4645 48.9286C95.2831 49.2091 95.0249 49.4281 94.7225 49.557C94.4201 49.6859 94.0872 49.7196 93.7656 49.6544C93.4447 49.5885 93.1502 49.4266 92.9182 49.1879C92.687 48.9498 92.5291 48.6459 92.465 48.3156C92.401 47.9845 92.4337 47.6418 92.5589 47.3305C92.6842 47.0192 92.8969 46.7526 93.1687 46.5659C93.4412 46.3784 93.7606 46.2787 94.0886 46.2787C94.5269 46.2787 94.948 46.4582 95.2582 46.7775C95.5684 47.0968 95.7427 47.5297 95.7434 47.9816Z" fill="#A2BADD"/>
<path d="M105.323 49.6866C106.238 49.6866 106.978 48.9242 106.978 47.9823C106.978 47.0412 106.238 46.2787 105.323 46.2787C104.41 46.2787 103.668 47.0412 103.668 47.9823C103.668 48.9242 104.41 49.6866 105.323 49.6866Z" fill="#A2BADD"/>
<path d="M118.213 47.9816C118.213 48.3192 118.116 48.6488 117.934 48.9286C117.752 49.2091 117.494 49.4281 117.192 49.557C116.889 49.6859 116.556 49.7196 116.236 49.6544C115.914 49.5885 115.619 49.4266 115.387 49.1878C115.156 48.9498 114.998 48.6458 114.934 48.3155C114.87 47.9845 114.903 47.6417 115.028 47.3304C115.153 47.0192 115.366 46.7526 115.638 46.5658C115.91 46.3783 116.23 46.2787 116.558 46.2787C116.775 46.278 116.99 46.3219 117.191 46.4076C117.392 46.4933 117.574 46.6185 117.727 46.7767C117.881 46.9349 118.003 47.1232 118.087 47.3297C118.17 47.5362 118.213 47.7582 118.213 47.9816Z" fill="#A2BADD"/>
<path d="M129.447 47.9816C129.447 48.3192 129.35 48.6488 129.168 48.9286C128.986 49.2091 128.728 49.4281 128.426 49.557C128.123 49.6859 127.79 49.7196 127.469 49.6544C127.149 49.5885 126.853 49.4266 126.622 49.1878C126.39 48.9498 126.233 48.6458 126.169 48.3155C126.105 47.9845 126.138 47.6417 126.263 47.3304C126.388 47.0192 126.6 46.7526 126.873 46.5658C127.144 46.3783 127.464 46.2787 127.792 46.2787C128.009 46.278 128.224 46.3219 128.425 46.4076C128.626 46.4933 128.808 46.6185 128.962 46.7767C129.116 46.9349 129.237 47.1232 129.321 47.3297C129.404 47.5362 129.447 47.7582 129.447 47.9816Z" fill="#A2BADD"/>
<path d="M954.57 195.613C954.57 195.915 954.484 196.21 954.321 196.461C954.157 196.711 953.929 196.907 953.659 197.023C953.388 197.138 953.09 197.168 952.805 197.109C952.513 197.05 952.25 196.905 952.044 196.691C951.837 196.478 951.695 196.207 951.638 195.911C951.581 195.615 951.61 195.309 951.724 195.03C951.838 194.751 952.023 194.513 952.272 194.346C952.513 194.178 952.798 194.089 953.09 194.089C953.481 194.089 953.858 194.249 954.136 194.535C954.413 194.821 954.57 195.209 954.57 195.613Z" fill="#A2BADD"/>
<path d="M963.143 197.138C963.961 197.138 964.623 196.456 964.623 195.613C964.623 194.771 963.961 194.089 963.143 194.089C962.324 194.089 961.663 194.771 961.663 195.613C961.663 196.456 962.324 197.138 963.143 197.138Z" fill="#A2BADD"/>
<path d="M974.675 195.613C974.675 195.915 974.59 196.21 974.426 196.461C974.263 196.712 974.035 196.907 973.765 197.023C973.494 197.138 973.196 197.168 972.911 197.109C972.619 197.05 972.356 196.905 972.15 196.691C971.943 196.478 971.801 196.207 971.744 195.911C971.687 195.615 971.716 195.308 971.83 195.03C971.943 194.751 972.128 194.513 972.377 194.345C972.619 194.178 972.904 194.089 973.196 194.089C973.395 194.089 973.587 194.128 973.765 194.205C973.943 194.281 974.106 194.394 974.241 194.535C974.384 194.677 974.49 194.845 974.569 195.03C974.64 195.215 974.675 195.413 974.675 195.613Z" fill="#A2BADD"/>
<path d="M984.728 195.613C984.728 195.915 984.643 196.21 984.479 196.461C984.316 196.711 984.088 196.907 983.818 197.023C983.547 197.138 983.249 197.168 982.964 197.109C982.672 197.05 982.409 196.905 982.203 196.691C981.996 196.478 981.854 196.207 981.797 195.911C981.74 195.615 981.769 195.309 981.883 195.03C981.996 194.751 982.181 194.513 982.43 194.346C982.672 194.178 982.957 194.089 983.249 194.089C983.448 194.089 983.64 194.128 983.818 194.204C983.996 194.281 984.159 194.393 984.302 194.535C984.437 194.677 984.543 194.845 984.622 195.03C984.693 195.215 984.728 195.413 984.728 195.613Z" fill="#A2BADD"/>
<path d="M993.302 197.138C994.12 197.138 994.788 196.456 994.788 195.613C994.788 194.771 994.12 194.089 993.302 194.089C992.483 194.089 991.822 194.771 991.822 195.613C991.822 196.456 992.483 197.138 993.302 197.138Z" fill="#A2BADD"/>
<path d="M1004.84 195.613C1004.84 195.915 1004.75 196.21 1004.59 196.461C1004.43 196.711 1004.19 196.907 1003.92 197.023C1003.65 197.138 1003.35 197.168 1003.07 197.109C1002.78 197.05 1002.51 196.905 1002.31 196.691C1002.1 196.478 1001.96 196.207 1001.9 195.911C1001.85 195.615 1001.87 195.309 1001.99 195.03C1002.1 194.751 1002.29 194.513 1002.54 194.346C1002.78 194.178 1003.06 194.089 1003.35 194.089C1003.75 194.089 1004.13 194.249 1004.41 194.535C1004.68 194.821 1004.84 195.209 1004.84 195.613Z" fill="#A2BADD"/>
<path d="M1014.89 195.613C1014.89 195.915 1014.8 196.21 1014.65 196.461C1014.48 196.711 1014.25 196.907 1013.98 197.023C1013.71 197.138 1013.41 197.168 1013.12 197.109C1012.84 197.05 1012.57 196.905 1012.36 196.691C1012.15 196.478 1012.01 196.207 1011.96 195.911C1011.9 195.615 1011.93 195.309 1012.04 195.03C1012.15 194.751 1012.35 194.513 1012.59 194.346C1012.83 194.178 1013.12 194.089 1013.41 194.089C1013.81 194.089 1014.18 194.249 1014.46 194.535C1014.74 194.821 1014.89 195.209 1014.89 195.613Z" fill="#A2BADD"/>
<path d="M964.622 205.967C964.622 206.268 964.537 206.563 964.373 206.813C964.21 207.065 963.982 207.26 963.712 207.375C963.441 207.491 963.143 207.521 962.858 207.462C962.566 207.404 962.303 207.258 962.097 207.045C961.89 206.832 961.748 206.56 961.691 206.264C961.634 205.968 961.663 205.661 961.777 205.383C961.891 205.104 962.075 204.866 962.325 204.698C962.566 204.531 962.851 204.441 963.143 204.441C963.534 204.442 963.911 204.602 964.189 204.889C964.466 205.174 964.622 205.562 964.622 205.967Z" fill="#A2BADD"/>
<path d="M974.675 205.967C974.675 206.269 974.59 206.563 974.426 206.814C974.263 207.065 974.035 207.26 973.765 207.375C973.494 207.491 973.196 207.521 972.911 207.462C972.619 207.403 972.356 207.258 972.15 207.045C971.943 206.831 971.801 206.559 971.744 206.263C971.687 205.967 971.716 205.661 971.83 205.382C971.943 205.104 972.128 204.866 972.377 204.698C972.619 204.531 972.904 204.441 973.196 204.441C973.594 204.442 973.964 204.602 974.241 204.889C974.519 205.174 974.675 205.562 974.675 205.967Z" fill="#A2BADD"/>
<path d="M984.728 205.967C984.728 206.268 984.643 206.563 984.479 206.813C984.316 207.065 984.088 207.26 983.818 207.375C983.547 207.491 983.249 207.521 982.964 207.462C982.672 207.404 982.409 207.258 982.203 207.045C981.996 206.832 981.854 206.56 981.797 206.264C981.74 205.968 981.769 205.661 981.883 205.383C981.996 205.104 982.181 204.866 982.43 204.698C982.672 204.531 982.957 204.441 983.249 204.441C983.64 204.441 984.017 204.602 984.294 204.888C984.579 205.174 984.728 205.562 984.728 205.967Z" fill="#A2BADD"/>
<path d="M994.788 205.967C994.788 206.268 994.696 206.563 994.532 206.813C994.376 207.065 994.141 207.26 993.871 207.375C993.6 207.491 993.301 207.521 993.017 207.462C992.725 207.404 992.462 207.258 992.256 207.045C992.049 206.832 991.907 206.56 991.85 206.264C991.793 205.968 991.822 205.661 991.936 205.383C992.049 205.104 992.241 204.866 992.483 204.698C992.725 204.531 993.01 204.441 993.302 204.441C993.7 204.441 994.077 204.602 994.354 204.888C994.632 205.174 994.788 205.562 994.788 205.967Z" fill="#A2BADD"/>
<path d="M1004.84 205.967C1004.84 206.268 1004.75 206.563 1004.59 206.813C1004.43 207.065 1004.19 207.26 1003.92 207.375C1003.65 207.491 1003.35 207.521 1003.07 207.462C1002.78 207.404 1002.51 207.258 1002.31 207.045C1002.1 206.832 1001.96 206.56 1001.9 206.264C1001.85 205.968 1001.87 205.661 1001.99 205.383C1002.1 205.104 1002.29 204.866 1002.54 204.698C1002.78 204.531 1003.06 204.441 1003.35 204.441C1003.75 204.442 1004.13 204.602 1004.41 204.889C1004.68 205.174 1004.84 205.562 1004.84 205.967Z" fill="#A2BADD"/>
<path d="M1014.89 205.967C1014.89 206.268 1014.8 206.563 1014.65 206.813C1014.48 207.065 1014.25 207.26 1013.98 207.375C1013.71 207.491 1013.41 207.521 1013.12 207.462C1012.84 207.404 1012.57 207.258 1012.36 207.045C1012.15 206.832 1012.01 206.56 1011.96 206.264C1011.9 205.968 1011.93 205.661 1012.04 205.383C1012.15 205.104 1012.35 204.866 1012.59 204.698C1012.83 204.531 1013.12 204.441 1013.41 204.441C1013.81 204.442 1014.18 204.602 1014.46 204.889C1014.74 205.174 1014.89 205.562 1014.89 205.967Z" fill="#A2BADD"/>
<path d="M1024.95 205.967C1024.95 206.269 1024.85 206.563 1024.7 206.814C1024.53 207.065 1024.3 207.26 1024.03 207.375C1023.76 207.491 1023.46 207.521 1023.18 207.462C1022.89 207.403 1022.62 207.258 1022.41 207.045C1022.21 206.831 1022.07 206.559 1022.01 206.263C1021.95 205.967 1021.99 205.661 1022.09 205.382C1022.21 205.104 1022.4 204.866 1022.64 204.698C1022.88 204.531 1023.17 204.441 1023.47 204.441C1023.86 204.442 1024.24 204.602 1024.51 204.889C1024.79 205.174 1024.95 205.562 1024.95 205.967Z" fill="#A2BADD"/>
<path d="M1027.48 607.771C1027.48 608.614 1027.24 609.438 1026.78 610.139C1026.33 610.84 1025.68 611.386 1024.92 611.708C1024.16 612.031 1023.33 612.115 1022.53 611.95C1021.72 611.785 1020.99 611.379 1020.41 610.783C1019.83 610.186 1019.44 609.427 1019.28 608.6C1019.12 607.773 1019.2 606.916 1019.51 606.137C1019.82 605.358 1020.36 604.692 1021.04 604.224C1021.72 603.755 1022.52 603.505 1023.34 603.505C1023.88 603.505 1024.42 603.616 1024.93 603.83C1025.42 604.044 1025.88 604.359 1026.26 604.755C1026.65 605.151 1026.95 605.621 1027.17 606.138C1027.37 606.656 1027.48 607.211 1027.48 607.771Z" stroke="#DFEAFC" stroke-miterlimit="10"/>
<path d="M1055.6 607.771C1055.6 608.614 1055.35 609.439 1054.9 610.14C1054.44 610.842 1053.8 611.388 1053.04 611.711C1052.28 612.034 1051.45 612.118 1050.64 611.954C1049.84 611.789 1049.1 611.383 1048.52 610.786C1047.94 610.19 1047.55 609.43 1047.39 608.603C1047.23 607.775 1047.32 606.918 1047.63 606.138C1047.94 605.359 1048.47 604.693 1049.15 604.224C1049.83 603.756 1050.63 603.505 1051.46 603.505C1052.55 603.505 1053.6 603.955 1054.38 604.755C1055.16 605.555 1055.6 606.639 1055.6 607.771Z" stroke="#DFEAFC" stroke-miterlimit="10"/>
<path d="M1083.71 607.771C1083.71 608.614 1083.46 609.439 1083.01 610.14C1082.55 610.842 1081.91 611.388 1081.15 611.711C1080.4 612.034 1079.56 612.118 1078.76 611.954C1077.96 611.789 1077.22 611.383 1076.63 610.786C1076.06 610.19 1075.67 609.43 1075.5 608.603C1075.35 607.775 1075.43 606.918 1075.74 606.138C1076.05 605.359 1076.58 604.693 1077.27 604.224C1077.94 603.756 1078.75 603.505 1079.57 603.505C1080.11 603.505 1080.65 603.615 1081.15 603.83C1081.66 604.044 1082.11 604.358 1082.5 604.754C1082.88 605.15 1083.19 605.621 1083.39 606.138C1083.6 606.655 1083.71 607.211 1083.71 607.771Z" stroke="#DFEAFC" stroke-miterlimit="10"/>
<path d="M1027.48 636.722C1027.48 637.565 1027.24 638.389 1026.78 639.09C1026.33 639.791 1025.68 640.338 1024.92 640.66C1024.16 640.982 1023.33 641.066 1022.53 640.902C1021.72 640.737 1020.99 640.331 1020.41 639.734C1019.83 639.138 1019.44 638.378 1019.28 637.551C1019.12 636.725 1019.2 635.867 1019.51 635.088C1019.82 634.309 1020.36 633.643 1021.04 633.175C1021.72 632.707 1022.52 632.457 1023.34 632.457C1023.88 632.457 1024.42 632.567 1024.93 632.781C1025.42 632.996 1025.88 633.31 1026.26 633.706C1026.65 634.102 1026.95 634.572 1027.17 635.09C1027.37 635.607 1027.48 636.162 1027.48 636.722Z" stroke="#DFEAFC" stroke-miterlimit="10"/>
<path d="M1055.6 636.722C1055.6 637.565 1055.35 638.39 1054.9 639.092C1054.44 639.793 1053.8 640.34 1053.04 640.663C1052.28 640.985 1051.45 641.07 1050.64 640.905C1049.84 640.74 1049.1 640.335 1048.52 639.738C1047.94 639.142 1047.55 638.381 1047.39 637.554C1047.23 636.727 1047.32 635.869 1047.63 635.09C1047.94 634.311 1048.47 633.644 1049.15 633.175C1049.83 632.707 1050.63 632.457 1051.46 632.457C1052.55 632.457 1053.6 632.906 1054.38 633.706C1055.16 634.506 1055.6 635.591 1055.6 636.722Z" stroke="#DFEAFC" stroke-miterlimit="10"/>
<path d="M1083.71 636.722C1083.71 637.565 1083.46 638.39 1083.01 639.092C1082.55 639.793 1081.91 640.34 1081.15 640.663C1080.4 640.985 1079.56 641.07 1078.76 640.905C1077.96 640.74 1077.22 640.335 1076.63 639.738C1076.06 639.142 1075.67 638.381 1075.5 637.554C1075.35 636.727 1075.43 635.869 1075.74 635.09C1076.05 634.311 1076.58 633.644 1077.27 633.175C1077.94 632.707 1078.75 632.457 1079.57 632.457C1080.11 632.457 1080.65 632.567 1081.15 632.781C1081.66 632.995 1082.11 633.309 1082.5 633.706C1082.88 634.102 1083.19 634.572 1083.39 635.089C1083.6 635.607 1083.71 636.161 1083.71 636.722Z" stroke="#DFEAFC" stroke-miterlimit="10"/>
<path d="M1.02451 530.178C1.59034 530.178 2.04904 529.705 2.04904 529.123C2.04904 528.54 1.59034 528.067 1.02451 528.067C0.458691 528.067 0 528.54 0 529.123C0 529.705 0.458691 530.178 1.02451 530.178Z" fill="#4181E0"/>
<path d="M14.3879 530.178C14.9537 530.178 15.4124 529.705 15.4124 529.123C15.4124 528.54 14.9537 528.067 14.3879 528.067C13.822 528.067 13.3633 528.54 13.3633 529.123C13.3633 529.705 13.822 530.178 14.3879 530.178Z" fill="#4181E0"/>
<path d="M1.02451 543.822C1.59034 543.822 2.04904 543.349 2.04904 542.767C2.04904 542.184 1.59034 541.711 1.02451 541.711C0.458691 541.711 0 542.184 0 542.767C0 543.349 0.458691 543.822 1.02451 543.822Z" fill="#4181E0"/>
<path d="M14.3879 543.822C14.9537 543.822 15.4124 543.349 15.4124 542.767C15.4124 542.184 14.9537 541.711 14.3879 541.711C13.822 541.711 13.3633 542.184 13.3633 542.767C13.3633 543.349 13.822 543.822 14.3879 543.822Z" fill="#4181E0"/>
<path d="M2.04905 556.411C2.04905 556.619 1.98893 556.823 1.87637 556.997C1.7638 557.17 1.60379 557.306 1.41659 557.386C1.22938 557.465 1.02338 557.486 0.82464 557.446C0.625908 557.405 0.443363 557.304 0.300075 557.157C0.156794 557.009 0.0592176 556.821 0.019689 556.617C-0.0198468 556.411 0.000444147 556.2 0.077986 556.006C0.155528 555.814 0.286842 555.649 0.455322 555.533C0.623803 555.417 0.821887 555.355 1.02452 555.355C1.29624 555.355 1.55683 555.467 1.74896 555.664C1.94112 555.862 2.04905 556.131 2.04905 556.411Z" fill="#4181E0"/>
<path d="M15.4118 556.411C15.4118 556.619 15.3517 556.823 15.2391 556.997C15.1266 557.17 14.9666 557.306 14.7793 557.386C14.5921 557.465 14.3862 557.486 14.1874 557.446C13.9887 557.405 13.8061 557.304 13.6628 557.157C13.5195 557.009 13.422 556.821 13.3825 556.617C13.343 556.411 13.3632 556.2 13.4408 556.006C13.5183 555.814 13.6496 555.649 13.8181 555.533C13.9866 555.417 14.1847 555.355 14.3873 555.355C14.5219 555.355 14.655 555.382 14.7793 555.436C14.9037 555.489 15.0166 555.566 15.1117 555.664C15.2068 555.763 15.2823 555.879 15.3338 556.006C15.3853 556.135 15.4118 556.272 15.4118 556.411Z" fill="#4181E0"/>
<path d="M2.04904 570.055C2.0489 570.264 1.98878 570.468 1.87616 570.641C1.7635 570.815 1.60346 570.95 1.41624 571.03C1.22903 571.11 1.02305 571.131 0.824346 571.09C0.625636 571.049 0.443139 570.948 0.299902 570.801C0.156671 570.653 0.059137 570.466 0.0196511 570.26C-0.019842 570.056 0.000477494 569.844 0.0780336 569.651C0.15559 569.458 0.286904 569.294 0.455377 569.177C0.623843 569.062 0.821905 569 1.02451 569C1.29628 569 1.55687 569.111 1.74899 569.309C1.94111 569.507 2.04904 569.776 2.04904 570.055Z" fill="#4181E0"/>
<path d="M15.4118 570.055C15.4117 570.264 15.3516 570.468 15.2389 570.641C15.1263 570.815 14.9662 570.95 14.779 571.03C14.5918 571.11 14.3858 571.131 14.1871 571.09C13.9884 571.049 13.8059 570.948 13.6627 570.801C13.5195 570.653 13.4219 570.466 13.3825 570.26C13.343 570.056 13.3632 569.844 13.4408 569.651C13.5183 569.458 13.6497 569.294 13.8181 569.177C13.9866 569.062 14.1847 569 14.3873 569C14.5219 569 14.6551 569.027 14.7795 569.08C14.9038 569.133 15.0167 569.211 15.1119 569.309C15.2071 569.407 15.2825 569.524 15.334 569.651C15.3854 569.779 15.4119 569.917 15.4118 570.055Z" fill="#4181E0"/>
<path d="M26.1525 530.178C26.7183 530.178 27.177 529.705 27.177 529.123C27.177 528.54 26.7183 528.067 26.1525 528.067C25.5867 528.067 25.1279 528.54 25.1279 529.123C25.1279 529.705 25.5867 530.178 26.1525 530.178Z" fill="#4181E0"/>
<path d="M39.516 530.178C40.0819 530.178 40.5405 529.705 40.5405 529.123C40.5405 528.54 40.0819 528.067 39.516 528.067C38.9502 528.067 38.4915 528.54 38.4915 529.123C38.4915 529.705 38.9502 530.178 39.516 530.178Z" fill="#4181E0"/>
<path d="M52.8796 530.178C53.4454 530.178 53.904 529.705 53.904 529.123C53.904 528.54 53.4454 528.067 52.8796 528.067C52.3137 528.067 51.855 528.54 51.855 529.123C51.855 529.705 52.3137 530.178 52.8796 530.178Z" fill="#4181E0"/>
<path d="M66.2428 530.178C66.8084 530.178 67.2673 529.705 67.2673 529.123C67.2673 528.54 66.8084 528.067 66.2428 528.067C65.677 528.067 65.2183 528.54 65.2183 529.123C65.2183 529.705 65.677 530.178 66.2428 530.178Z" fill="#4181E0"/>
<path d="M26.1525 543.822C26.7183 543.822 27.177 543.349 27.177 542.767C27.177 542.184 26.7183 541.711 26.1525 541.711C25.5867 541.711 25.1279 542.184 25.1279 542.767C25.1279 543.349 25.5867 543.822 26.1525 543.822Z" fill="#4181E0"/>
<path d="M39.516 543.822C40.0819 543.822 40.5405 543.349 40.5405 542.767C40.5405 542.184 40.0819 541.711 39.516 541.711C38.9502 541.711 38.4915 542.184 38.4915 542.767C38.4915 543.349 38.9502 543.822 39.516 543.822Z" fill="#4181E0"/>
<path d="M52.8796 543.822C53.4454 543.822 53.904 543.349 53.904 542.767C53.904 542.184 53.4454 541.711 52.8796 541.711C52.3137 541.711 51.855 542.184 51.855 542.767C51.855 543.349 52.3137 543.822 52.8796 543.822Z" fill="#4181E0"/>
<path d="M66.2428 543.822C66.8084 543.822 67.2673 543.349 67.2673 542.767C67.2673 542.184 66.8084 541.711 66.2428 541.711C65.677 541.711 65.2183 542.184 65.2183 542.767C65.2183 543.349 65.677 543.822 66.2428 543.822Z" fill="#4181E0"/>
<path d="M27.1772 556.411C27.1772 556.619 27.1171 556.823 27.0045 556.997C26.892 557.17 26.732 557.306 26.5447 557.386C26.3575 557.465 26.1516 557.486 25.9528 557.446C25.7541 557.405 25.5715 557.304 25.4282 557.157C25.2849 557.009 25.1874 556.821 25.1478 556.617C25.1083 556.411 25.1286 556.2 25.2062 556.006C25.2837 555.814 25.415 555.649 25.5835 555.533C25.7519 555.417 25.9501 555.355 26.1527 555.355C26.4244 555.355 26.685 555.467 26.8771 555.664C27.0693 555.862 27.1772 556.131 27.1772 556.411Z" fill="#4181E0"/>
<path d="M40.5405 556.411C40.5405 556.619 40.4804 556.823 40.3678 556.997C40.2553 557.17 40.0952 557.306 39.908 557.386C39.7208 557.465 39.5148 557.486 39.3161 557.446C39.1173 557.405 38.9348 557.304 38.7915 557.157C38.6482 557.009 38.5507 556.821 38.5111 556.617C38.4716 556.411 38.4919 556.2 38.5695 556.006C38.647 555.814 38.7783 555.649 38.9467 555.533C39.1152 555.417 39.3134 555.355 39.516 555.355C39.7877 555.355 40.0483 555.467 40.2404 555.664C40.4326 555.862 40.5405 556.131 40.5405 556.411Z" fill="#4181E0"/>
<path d="M53.904 556.411C53.904 556.619 53.8439 556.823 53.7313 556.997C53.6188 557.17 53.4588 557.306 53.2716 557.386C53.0843 557.465 52.8784 557.486 52.6796 557.446C52.4809 557.405 52.2983 557.304 52.155 557.157C52.0117 557.009 51.9142 556.821 51.8746 556.617C51.8352 556.411 51.8554 556.2 51.933 556.006C52.0105 555.814 52.1418 555.649 52.3103 555.533C52.4788 555.417 52.6769 555.355 52.8795 555.355C53.1512 555.355 53.4118 555.467 53.6039 555.664C53.7961 555.862 53.904 556.131 53.904 556.411Z" fill="#4181E0"/>
<path d="M67.2666 556.411C67.2666 556.619 67.2068 556.823 67.0944 556.997C66.9813 557.17 66.8219 557.306 66.6341 557.386C66.447 557.465 66.2413 557.486 66.0421 557.446C65.8436 557.405 65.6611 557.304 65.5178 557.157C65.3746 557.009 65.277 556.821 65.2375 556.617C65.1979 556.411 65.2182 556.2 65.2957 556.006C65.3733 555.814 65.5046 555.649 65.6731 555.533C65.8416 555.417 66.0393 555.355 66.2421 555.355C66.3765 555.355 66.5103 555.382 66.6341 555.436C66.7586 555.489 66.8717 555.566 66.967 555.664C67.0617 555.763 67.1371 555.879 67.189 556.006C67.2402 556.135 67.2666 556.272 67.2666 556.411Z" fill="#4181E0"/>
<path d="M27.1772 570.055C27.1771 570.264 27.1169 570.468 27.0043 570.641C26.8917 570.815 26.7316 570.95 26.5444 571.03C26.3572 571.11 26.1512 571.131 25.9525 571.09C25.7538 571.049 25.5713 570.948 25.4281 570.801C25.2849 570.653 25.1873 570.466 25.1478 570.26C25.1083 570.056 25.1286 569.844 25.2062 569.651C25.2837 569.458 25.4151 569.294 25.5835 569.177C25.752 569.062 25.9501 569 26.1527 569C26.2872 569 26.4205 569.027 26.5449 569.08C26.6692 569.133 26.7821 569.211 26.8773 569.309C26.9724 569.407 27.0479 569.524 27.0994 569.651C27.1508 569.779 27.1773 569.917 27.1772 570.055Z" fill="#4181E0"/>
<path d="M40.5405 570.055C40.5404 570.264 40.4802 570.468 40.3676 570.641C40.255 570.815 40.0949 570.95 39.9077 571.03C39.7205 571.11 39.5145 571.131 39.3158 571.09C39.1171 571.049 38.9346 570.948 38.7914 570.801C38.6481 570.653 38.5506 570.466 38.5111 570.26C38.4716 570.056 38.4919 569.844 38.5695 569.651C38.647 569.458 38.7783 569.294 38.9468 569.177C39.1153 569.062 39.3134 569 39.516 569C39.6505 569 39.7838 569.027 39.9081 569.08C40.0325 569.133 40.1454 569.211 40.2406 569.309C40.3357 569.407 40.4111 569.524 40.4626 569.651C40.5141 569.779 40.5405 569.917 40.5405 570.055Z" fill="#4181E0"/>
<path d="M53.904 570.055C53.9039 570.264 53.8437 570.468 53.7311 570.641C53.6185 570.815 53.4584 570.95 53.2712 571.03C53.084 571.11 52.878 571.131 52.6793 571.09C52.4806 571.049 52.2981 570.948 52.1549 570.801C52.0117 570.653 51.9141 570.466 51.8746 570.26C51.8352 570.056 51.8554 569.844 51.933 569.651C52.0105 569.458 52.1419 569.294 52.3103 569.177C52.4788 569.062 52.6769 569 52.8795 569C53.1513 569 53.4118 569.111 53.604 569.309C53.7961 569.507 53.904 569.776 53.904 570.055Z" fill="#4181E0"/>
<path d="M67.2666 570.055C67.2666 570.264 67.2068 570.468 67.0937 570.641C66.9813 570.815 66.8212 570.95 66.6341 571.03C66.447 571.11 66.2407 571.131 66.0422 571.09C65.8434 571.049 65.6609 570.948 65.5177 570.801C65.3745 570.653 65.2769 570.466 65.2374 570.26C65.1979 570.056 65.2182 569.844 65.2958 569.651C65.3734 569.458 65.5047 569.294 65.6731 569.177C65.8416 569.062 66.04 569 66.2421 569C66.3765 569 66.5103 569.027 66.6348 569.08C66.7586 569.133 66.8717 569.211 66.9671 569.309C67.0624 569.407 67.1378 569.524 67.189 569.651C67.2403 569.779 67.2666 569.917 67.2666 570.055Z" fill="#4181E0"/>
<path d="M26.1525 583.728C26.7183 583.728 27.177 583.256 27.177 582.673C27.177 582.09 26.7183 581.617 26.1525 581.617C25.5867 581.617 25.1279 582.09 25.1279 582.673C25.1279 583.256 25.5867 583.728 26.1525 583.728Z" fill="#4181E0"/>
<path d="M39.516 583.728C40.0819 583.728 40.5405 583.256 40.5405 582.673C40.5405 582.09 40.0819 581.617 39.516 581.617C38.9502 581.617 38.4915 582.09 38.4915 582.673C38.4915 583.256 38.9502 583.728 39.516 583.728Z" fill="#4181E0"/>
<path d="M52.8796 583.728C53.4454 583.728 53.904 583.256 53.904 582.673C53.904 582.09 53.4454 581.617 52.8796 581.617C52.3137 581.617 51.855 582.09 51.855 582.673C51.855 583.256 52.3137 583.728 52.8796 583.728Z" fill="#4181E0"/>
<path d="M66.2428 583.728C66.8084 583.728 67.2673 583.256 67.2673 582.673C67.2673 582.09 66.8084 581.617 66.2428 581.617C65.677 581.617 65.2183 582.09 65.2183 582.673C65.2183 583.256 65.677 583.728 66.2428 583.728Z" fill="#4181E0"/>
<path d="M26.1525 597.372C26.7183 597.372 27.177 596.9 27.177 596.317C27.177 595.734 26.7183 595.261 26.1525 595.261C25.5867 595.261 25.1279 595.734 25.1279 596.317C25.1279 596.9 25.5867 597.372 26.1525 597.372Z" fill="#4181E0"/>
<path d="M39.516 597.372C40.0819 597.372 40.5405 596.9 40.5405 596.317C40.5405 595.734 40.0819 595.261 39.516 595.261C38.9502 595.261 38.4915 595.734 38.4915 596.317C38.4915 596.9 38.9502 597.372 39.516 597.372Z" fill="#4181E0"/>
<path d="M52.8796 597.372C53.4454 597.372 53.904 596.9 53.904 596.317C53.904 595.734 53.4454 595.261 52.8796 595.261C52.3137 595.261 51.855 595.734 51.855 596.317C51.855 596.9 52.3137 597.372 52.8796 597.372Z" fill="#4181E0"/>
<path d="M66.2428 597.372C66.8084 597.372 67.2673 596.9 67.2673 596.317C67.2673 595.734 66.8084 595.261 66.2428 595.261C65.677 595.261 65.2183 595.734 65.2183 596.317C65.2183 596.9 65.677 597.372 66.2428 597.372Z" fill="#4181E0"/>
<path d="M27.177 609.961C27.177 610.169 27.1169 610.374 27.0043 610.547C26.8918 610.721 26.7318 610.856 26.5445 610.936C26.3573 611.015 26.1513 611.037 25.9526 610.996C25.7539 610.955 25.5713 610.854 25.428 610.707C25.2847 610.559 25.1872 610.372 25.1476 610.166C25.1081 609.962 25.1284 609.75 25.2059 609.557C25.2834 609.365 25.4148 609.2 25.5832 609.083C25.7517 608.968 25.9499 608.905 26.1525 608.905C26.4242 608.905 26.6848 609.017 26.8769 609.214C27.0691 609.413 27.177 609.681 27.177 609.961Z" fill="#4181E0"/>
<path d="M40.5405 609.961C40.5405 610.169 40.4804 610.374 40.3678 610.547C40.2553 610.721 40.0953 610.856 39.908 610.936C39.7208 611.015 39.5149 611.037 39.3161 610.996C39.1174 610.955 38.9348 610.854 38.7915 610.707C38.6482 610.559 38.5507 610.372 38.5111 610.166C38.4716 609.962 38.4919 609.75 38.5695 609.557C38.647 609.365 38.7783 609.2 38.9468 609.083C39.1152 608.968 39.3133 608.905 39.516 608.905C39.7877 608.905 40.0483 609.017 40.2404 609.214C40.4326 609.413 40.5405 609.681 40.5405 609.961Z" fill="#4181E0"/>
<path d="M53.904 609.961C53.904 610.169 53.8439 610.374 53.7313 610.547C53.6188 610.721 53.4588 610.856 53.2715 610.936C53.0843 611.015 52.8784 611.037 52.6796 610.996C52.4809 610.955 52.2983 610.854 52.155 610.707C52.0117 610.559 51.9142 610.372 51.8746 610.166C51.8352 609.962 51.8554 609.75 51.9329 609.557C52.0105 609.365 52.1418 609.2 52.3103 609.083C52.4787 608.968 52.6769 608.905 52.8795 608.905C53.1512 608.905 53.4118 609.017 53.6039 609.214C53.7961 609.413 53.904 609.681 53.904 609.961Z" fill="#4181E0"/>
<path d="M67.2666 609.961C67.2666 610.169 67.2068 610.374 67.0944 610.547C66.9813 610.721 66.8212 610.856 66.6341 610.936C66.447 611.015 66.2414 611.037 66.0422 610.996C65.8437 610.955 65.6611 610.854 65.5178 610.707C65.3745 610.559 65.277 610.372 65.2374 610.166C65.1979 609.962 65.2182 609.75 65.2958 609.557C65.3733 609.365 65.5046 609.2 65.6731 609.083C65.8416 608.968 66.0393 608.905 66.2421 608.905C66.3765 608.905 66.5103 608.933 66.6341 608.986C66.7586 609.039 66.8717 609.117 66.9671 609.214C67.0617 609.312 67.1371 609.429 67.189 609.557C67.2403 609.685 67.2666 609.822 67.2666 609.961Z" fill="#4181E0"/>
<path d="M27.177 623.606C27.1768 623.814 27.1167 624.019 27.0041 624.192C26.8914 624.366 26.7314 624.501 26.5442 624.58C26.357 624.66 26.151 624.681 25.9523 624.641C25.7536 624.599 25.5711 624.499 25.4279 624.351C25.2846 624.204 25.1871 624.016 25.1476 623.811C25.1081 623.606 25.1284 623.395 25.206 623.201C25.2835 623.009 25.4148 622.844 25.5833 622.728C25.7518 622.612 25.9499 622.55 26.1525 622.55C26.287 622.55 26.4203 622.577 26.5446 622.631C26.6689 622.683 26.7819 622.761 26.877 622.859C26.9722 622.957 27.0476 623.074 27.0992 623.202C27.1506 623.33 27.1771 623.467 27.177 623.606Z" fill="#4181E0"/>
<path d="M40.5405 623.606C40.5404 623.814 40.4803 624.019 40.3676 624.192C40.2549 624.366 40.0949 624.501 39.9077 624.58C39.7205 624.66 39.5145 624.681 39.3158 624.641C39.1171 624.599 38.9346 624.499 38.7914 624.351C38.6481 624.204 38.5506 624.016 38.5111 623.811C38.4716 623.606 38.4919 623.395 38.5695 623.201C38.647 623.009 38.7784 622.844 38.9468 622.728C39.1153 622.612 39.3134 622.55 39.516 622.55C39.6505 622.55 39.7838 622.577 39.9082 622.631C40.0325 622.683 40.1454 622.761 40.2406 622.859C40.3358 622.957 40.4112 623.074 40.4627 623.202C40.5141 623.33 40.5406 623.467 40.5405 623.606Z" fill="#4181E0"/>
<path d="M53.904 623.606C53.9039 623.814 53.8438 624.019 53.7311 624.192C53.6185 624.366 53.4584 624.501 53.2713 624.58C53.084 624.66 52.878 624.681 52.6793 624.641C52.4806 624.599 52.2981 624.499 52.1549 624.351C52.0117 624.204 51.9142 624.016 51.8747 623.811C51.8351 623.606 51.8555 623.395 51.933 623.201C52.0106 623.009 52.1419 622.844 52.3104 622.728C52.4788 622.612 52.6769 622.55 52.8795 622.55C53.1513 622.55 53.4118 622.661 53.6039 622.859C53.7961 623.058 53.904 623.326 53.904 623.606Z" fill="#4181E0"/>
<path d="M67.2666 623.606C67.2666 623.814 67.2068 624.019 67.0937 624.192C66.9813 624.366 66.8212 624.501 66.6341 624.58C66.447 624.66 66.2407 624.681 66.0422 624.641C65.8434 624.599 65.6609 624.499 65.5177 624.351C65.3745 624.204 65.2769 624.016 65.2374 623.811C65.1979 623.606 65.2182 623.395 65.2958 623.201C65.3734 623.009 65.5047 622.844 65.6731 622.728C65.8416 622.612 66.04 622.55 66.2421 622.55C66.3765 622.55 66.5103 622.577 66.6348 622.631C66.7586 622.683 66.8717 622.761 66.9671 622.859C67.0624 622.957 67.1378 623.074 67.189 623.202C67.2403 623.33 67.2666 623.467 67.2666 623.606Z" fill="#4181E0"/>
<path d="M1.02451 583.728C1.59034 583.728 2.04904 583.256 2.04904 582.673C2.04904 582.09 1.59034 581.617 1.02451 581.617C0.458691 581.617 0 582.09 0 582.673C0 583.256 0.458691 583.728 1.02451 583.728Z" fill="#4181E0"/>
<path d="M14.3879 583.728C14.9537 583.728 15.4124 583.256 15.4124 582.673C15.4124 582.09 14.9537 581.617 14.3879 581.617C13.822 581.617 13.3633 582.09 13.3633 582.673C13.3633 583.256 13.822 583.728 14.3879 583.728Z" fill="#4181E0"/>
<path d="M1.02451 597.372C1.59034 597.372 2.04904 596.9 2.04904 596.317C2.04904 595.734 1.59034 595.261 1.02451 595.261C0.458691 595.261 0 595.734 0 596.317C0 596.9 0.458691 597.372 1.02451 597.372Z" fill="#4181E0"/>
<path d="M14.3879 597.372C14.9537 597.372 15.4124 596.9 15.4124 596.317C15.4124 595.734 14.9537 595.261 14.3879 595.261C13.822 595.261 13.3633 595.734 13.3633 596.317C13.3633 596.9 13.822 597.372 14.3879 597.372Z" fill="#4181E0"/>
<path d="M2.04905 609.961C2.04905 610.169 1.98893 610.374 1.87637 610.547C1.7638 610.721 1.60379 610.856 1.41659 610.936C1.22938 611.015 1.02338 611.037 0.82464 610.996C0.625908 610.955 0.443363 610.854 0.300075 610.707C0.156794 610.559 0.0592176 610.372 0.019689 610.166C-0.0198468 609.962 0.000444147 609.75 0.077986 609.557C0.155528 609.365 0.286842 609.2 0.455322 609.083C0.623803 608.968 0.821887 608.905 1.02452 608.905C1.29624 608.905 1.55683 609.017 1.74896 609.214C1.94112 609.413 2.04905 609.681 2.04905 609.961Z" fill="#4181E0"/>
<path d="M15.4118 609.961C15.4118 610.169 15.3517 610.374 15.2391 610.547C15.1266 610.721 14.9666 610.856 14.7793 610.936C14.5921 611.015 14.3862 611.037 14.1874 610.996C13.9887 610.955 13.8061 610.854 13.6628 610.707C13.5195 610.559 13.422 610.372 13.3825 610.166C13.343 609.962 13.3632 609.75 13.4408 609.557C13.5183 609.365 13.6496 609.2 13.8181 609.083C13.9866 608.968 14.1847 608.905 14.3873 608.905C14.5219 608.905 14.655 608.933 14.7793 608.986C14.9037 609.039 15.0166 609.117 15.1117 609.214C15.2068 609.312 15.2823 609.429 15.3338 609.557C15.3853 609.685 15.4118 609.822 15.4118 609.961Z" fill="#4181E0"/>
<path d="M2.04904 623.606C2.0489 623.814 1.98878 624.019 1.87616 624.192C1.7635 624.366 1.60346 624.501 1.41624 624.58C1.22903 624.66 1.02305 624.681 0.824346 624.641C0.625636 624.599 0.443139 624.499 0.299902 624.351C0.156671 624.204 0.059137 624.016 0.0196511 623.811C-0.019842 623.606 0.000477494 623.395 0.0780336 623.201C0.15559 623.009 0.286904 622.844 0.455377 622.728C0.623843 622.612 0.821905 622.55 1.02451 622.55C1.29628 622.55 1.55687 622.661 1.74899 622.859C1.94111 623.058 2.04904 623.326 2.04904 623.606Z" fill="#4181E0"/>
<path d="M15.4118 623.606C15.4117 623.814 15.3516 624.019 15.2389 624.192C15.1263 624.366 14.9662 624.501 14.779 624.58C14.5918 624.66 14.3858 624.681 14.1871 624.641C13.9884 624.599 13.8059 624.499 13.6627 624.351C13.5195 624.204 13.4219 624.016 13.3825 623.811C13.343 623.606 13.3632 623.395 13.4408 623.201C13.5183 623.009 13.6497 622.844 13.8181 622.728C13.9866 622.612 14.1847 622.55 14.3873 622.55C14.5219 622.55 14.6551 622.577 14.7795 622.631C14.9038 622.683 15.0167 622.761 15.1119 622.859C15.2071 622.957 15.2825 623.074 15.334 623.202C15.3854 623.33 15.4119 623.467 15.4118 623.606Z" fill="#4181E0"/>
<path d="M1.02451 637.278C1.59034 637.278 2.04904 636.806 2.04904 636.224C2.04904 635.641 1.59034 635.168 1.02451 635.168C0.458691 635.168 0 635.641 0 636.224C0 636.806 0.458691 637.278 1.02451 637.278Z" fill="#4181E0"/>
<path d="M14.3879 637.278C14.9537 637.278 15.4124 636.806 15.4124 636.224C15.4124 635.641 14.9537 635.168 14.3879 635.168C13.822 635.168 13.3633 635.641 13.3633 636.224C13.3633 636.806 13.822 637.278 14.3879 637.278Z" fill="#4181E0"/>
<path d="M1.02451 650.922C1.59034 650.922 2.04904 650.45 2.04904 649.868C2.04904 649.285 1.59034 648.812 1.02451 648.812C0.458691 648.812 0 649.285 0 649.868C0 650.45 0.458691 650.922 1.02451 650.922Z" fill="#4181E0"/>
<path d="M14.3879 650.922C14.9537 650.922 15.4124 650.45 15.4124 649.868C15.4124 649.285 14.9537 648.812 14.3879 648.812C13.822 648.812 13.3633 649.285 13.3633 649.868C13.3633 650.45 13.822 650.922 14.3879 650.922Z" fill="#4181E0"/>
<path d="M26.1525 637.278C26.7183 637.278 27.177 636.806 27.177 636.224C27.177 635.641 26.7183 635.168 26.1525 635.168C25.5867 635.168 25.1279 635.641 25.1279 636.224C25.1279 636.806 25.5867 637.278 26.1525 637.278Z" fill="#4181E0"/>
<path d="M39.516 637.278C40.0819 637.278 40.5405 636.806 40.5405 636.224C40.5405 635.641 40.0819 635.168 39.516 635.168C38.9502 635.168 38.4915 635.641 38.4915 636.224C38.4915 636.806 38.9502 637.278 39.516 637.278Z" fill="#4181E0"/>
<path d="M52.8796 637.278C53.4454 637.278 53.904 636.806 53.904 636.224C53.904 635.641 53.4454 635.168 52.8796 635.168C52.3137 635.168 51.855 635.641 51.855 636.224C51.855 636.806 52.3137 637.278 52.8796 637.278Z" fill="#4181E0"/>
<path d="M66.2428 637.278C66.8084 637.278 67.2673 636.806 67.2673 636.224C67.2673 635.641 66.8084 635.168 66.2428 635.168C65.677 635.168 65.2183 635.641 65.2183 636.224C65.2183 636.806 65.677 637.278 66.2428 637.278Z" fill="#4181E0"/>
<path d="M26.1525 650.922C26.7183 650.922 27.177 650.45 27.177 649.868C27.177 649.285 26.7183 648.812 26.1525 648.812C25.5867 648.812 25.1279 649.285 25.1279 649.868C25.1279 650.45 25.5867 650.922 26.1525 650.922Z" fill="#4181E0"/>
<path d="M39.516 650.922C40.0819 650.922 40.5405 650.45 40.5405 649.868C40.5405 649.285 40.0819 648.812 39.516 648.812C38.9502 648.812 38.4915 649.285 38.4915 649.868C38.4915 650.45 38.9502 650.922 39.516 650.922Z" fill="#4181E0"/>
<path d="M52.8796 650.922C53.4454 650.922 53.904 650.45 53.904 649.868C53.904 649.285 53.4454 648.812 52.8796 648.812C52.3137 648.812 51.855 649.285 51.855 649.868C51.855 650.45 52.3137 650.922 52.8796 650.922Z" fill="#4181E0"/>
<path d="M66.2428 650.922C66.8084 650.922 67.2673 650.45 67.2673 649.868C67.2673 649.285 66.8084 648.812 66.2428 648.812C65.677 648.812 65.2183 649.285 65.2183 649.868C65.2183 650.45 65.677 650.922 66.2428 650.922Z" fill="#4181E0"/>
<path d="M1308.66 197.178C1309.49 197.178 1310.16 196.486 1310.16 195.633C1310.16 194.78 1309.49 194.089 1308.66 194.089C1307.83 194.089 1307.16 194.78 1307.16 195.633C1307.16 196.486 1307.83 197.178 1308.66 197.178Z" fill="#4181E0" fill-opacity="0.34"/>
<path d="M1328.23 197.178C1329.06 197.178 1329.73 196.486 1329.73 195.633C1329.73 194.78 1329.06 194.089 1328.23 194.089C1327.4 194.089 1326.73 194.78 1326.73 195.633C1326.73 196.486 1327.4 197.178 1328.23 197.178Z" fill="#4181E0" fill-opacity="0.34"/>
<path d="M1347.8 197.178C1348.63 197.178 1349.3 196.486 1349.3 195.633C1349.3 194.78 1348.63 194.089 1347.8 194.089C1346.97 194.089 1346.3 194.78 1346.3 195.633C1346.3 196.486 1346.97 197.178 1347.8 197.178Z" fill="#4181E0" fill-opacity="0.34"/>
<path d="M1308.66 217.15C1309.49 217.15 1310.16 216.458 1310.16 215.605C1310.16 214.752 1309.49 214.061 1308.66 214.061C1307.83 214.061 1307.16 214.752 1307.16 215.605C1307.16 216.458 1307.83 217.15 1308.66 217.15Z" fill="#4181E0" fill-opacity="0.34"/>
<path d="M1328.23 217.15C1329.06 217.15 1329.73 216.458 1329.73 215.605C1329.73 214.752 1329.06 214.061 1328.23 214.061C1327.4 214.061 1326.73 214.752 1326.73 215.605C1326.73 216.458 1327.4 217.15 1328.23 217.15Z" fill="#4181E0" fill-opacity="0.34"/>
<path d="M1347.8 217.15C1348.63 217.15 1349.3 216.458 1349.3 215.605C1349.3 214.752 1348.63 214.061 1347.8 214.061C1346.97 214.061 1346.3 214.752 1346.3 215.605C1346.3 216.458 1346.97 217.15 1347.8 217.15Z" fill="#4181E0" fill-opacity="0.34"/>
<path d="M1310.16 235.577C1310.16 235.883 1310.07 236.181 1309.91 236.436C1309.74 236.69 1309.51 236.888 1309.23 237.004C1308.96 237.121 1308.66 237.152 1308.36 237.092C1308.07 237.033 1307.81 236.885 1307.6 236.669C1307.39 236.453 1307.25 236.179 1307.19 235.878C1307.13 235.579 1307.16 235.268 1307.27 234.986C1307.39 234.704 1307.58 234.463 1307.82 234.293C1308.07 234.123 1308.36 234.033 1308.66 234.033C1309.05 234.033 1309.44 234.195 1309.72 234.485C1310 234.775 1310.16 235.168 1310.16 235.577Z" fill="#4181E0" fill-opacity="0.34"/>
<path d="M1329.73 235.577C1329.73 235.883 1329.64 236.181 1329.48 236.436C1329.31 236.69 1329.08 236.888 1328.8 237.004C1328.53 237.121 1328.23 237.152 1327.94 237.092C1327.64 237.033 1327.38 236.885 1327.17 236.669C1326.96 236.453 1326.82 236.179 1326.75 235.878C1326.7 235.579 1326.73 235.268 1326.84 234.986C1326.95 234.704 1327.15 234.463 1327.4 234.293C1327.64 234.123 1327.94 234.033 1328.23 234.033C1328.63 234.033 1329.01 234.195 1329.29 234.485C1329.57 234.775 1329.73 235.168 1329.73 235.577Z" fill="#4181E0" fill-opacity="0.34"/>
<path d="M1349.3 235.577C1349.3 235.883 1349.22 236.181 1349.05 236.436C1348.88 236.69 1348.65 236.888 1348.38 237.004C1348.1 237.121 1347.8 237.152 1347.51 237.092C1347.22 237.033 1346.95 236.885 1346.74 236.669C1346.53 236.453 1346.38 236.179 1346.33 235.878C1346.27 235.579 1346.3 235.268 1346.41 234.986C1346.53 234.704 1346.72 234.463 1346.97 234.293C1347.22 234.123 1347.5 234.033 1347.8 234.033C1348.2 234.033 1348.58 234.195 1348.86 234.485C1349.14 234.775 1349.3 235.168 1349.3 235.577Z" fill="#4181E0" fill-opacity="0.34"/>
<path d="M1310.16 255.551C1310.16 255.856 1310.07 256.155 1309.91 256.408C1309.74 256.663 1309.51 256.86 1309.23 256.977C1308.96 257.094 1308.66 257.125 1308.36 257.065C1308.07 257.005 1307.81 256.858 1307.6 256.642C1307.39 256.426 1307.25 256.151 1307.19 255.851C1307.13 255.551 1307.16 255.241 1307.27 254.959C1307.39 254.676 1307.58 254.435 1307.82 254.265C1308.07 254.096 1308.36 254.005 1308.66 254.005C1308.85 254.005 1309.05 254.046 1309.23 254.123C1309.42 254.201 1309.58 254.314 1309.72 254.458C1309.86 254.602 1309.97 254.772 1310.04 254.96C1310.12 255.147 1310.16 255.348 1310.16 255.551Z" fill="#4181E0" fill-opacity="0.34"/>
<path d="M1329.73 255.551C1329.73 255.856 1329.64 256.155 1329.48 256.408C1329.31 256.663 1329.07 256.86 1328.8 256.977C1328.53 257.094 1328.23 257.125 1327.94 257.065C1327.64 257.005 1327.38 256.858 1327.17 256.642C1326.96 256.426 1326.82 256.151 1326.75 255.851C1326.7 255.551 1326.73 255.241 1326.84 254.959C1326.95 254.676 1327.15 254.435 1327.4 254.265C1327.64 254.096 1327.94 254.005 1328.23 254.005C1328.43 254.005 1328.62 254.046 1328.8 254.123C1328.99 254.201 1329.15 254.314 1329.29 254.458C1329.43 254.602 1329.54 254.772 1329.61 254.96C1329.69 255.147 1329.73 255.348 1329.73 255.551Z" fill="#4181E0" fill-opacity="0.34"/>
<path d="M1349.3 255.551C1349.3 255.856 1349.22 256.155 1349.05 256.408C1348.88 256.663 1348.65 256.86 1348.38 256.977C1348.1 257.094 1347.8 257.125 1347.51 257.065C1347.22 257.005 1346.95 256.858 1346.74 256.642C1346.53 256.426 1346.38 256.151 1346.33 255.851C1346.27 255.551 1346.3 255.241 1346.41 254.959C1346.53 254.676 1346.72 254.435 1346.97 254.265C1347.22 254.096 1347.5 254.005 1347.8 254.005C1348.2 254.005 1348.58 254.169 1348.86 254.458C1349.14 254.748 1349.3 255.141 1349.3 255.551Z" fill="#4181E0" fill-opacity="0.34"/>
<path d="M1232.71 197.178C1233.54 197.178 1234.22 196.486 1234.22 195.633C1234.22 194.78 1233.54 194.089 1232.71 194.089C1231.88 194.089 1231.21 194.78 1231.21 195.633C1231.21 196.486 1231.88 197.178 1232.71 197.178Z" fill="#4181E0" fill-opacity="0.34"/>
<path d="M1252.29 197.178C1253.11 197.178 1253.79 196.486 1253.79 195.633C1253.79 194.78 1253.11 194.089 1252.29 194.089C1251.45 194.089 1250.79 194.78 1250.79 195.633C1250.79 196.486 1251.45 197.178 1252.29 197.178Z" fill="#4181E0" fill-opacity="0.34"/>
<path d="M1271.86 197.178C1272.68 197.178 1273.36 196.486 1273.36 195.633C1273.36 194.78 1272.68 194.089 1271.86 194.089C1271.03 194.089 1270.36 194.78 1270.36 195.633C1270.36 196.486 1271.03 197.178 1271.86 197.178Z" fill="#4181E0" fill-opacity="0.34"/>
<path d="M1291.43 197.178C1292.26 197.178 1292.93 196.486 1292.93 195.633C1292.93 194.78 1292.26 194.089 1291.43 194.089C1290.6 194.089 1289.93 194.78 1289.93 195.633C1289.93 196.486 1290.6 197.178 1291.43 197.178Z" fill="#4181E0" fill-opacity="0.34"/>
<path d="M1232.71 217.15C1233.54 217.15 1234.22 216.458 1234.22 215.605C1234.22 214.752 1233.54 214.061 1232.71 214.061C1231.88 214.061 1231.21 214.752 1231.21 215.605C1231.21 216.458 1231.88 217.15 1232.71 217.15Z" fill="#4181E0" fill-opacity="0.34"/>
<path d="M1252.29 217.15C1253.11 217.15 1253.79 216.458 1253.79 215.605C1253.79 214.752 1253.11 214.061 1252.29 214.061C1251.45 214.061 1250.79 214.752 1250.79 215.605C1250.79 216.458 1251.45 217.15 1252.29 217.15Z" fill="#4181E0" fill-opacity="0.34"/>
<path d="M1271.86 217.15C1272.68 217.15 1273.36 216.458 1273.36 215.605C1273.36 214.752 1272.68 214.061 1271.86 214.061C1271.03 214.061 1270.36 214.752 1270.36 215.605C1270.36 216.458 1271.03 217.15 1271.86 217.15Z" fill="#4181E0" fill-opacity="0.34"/>
<path d="M1291.43 217.15C1292.26 217.15 1292.93 216.458 1292.93 215.605C1292.93 214.752 1292.26 214.061 1291.43 214.061C1290.6 214.061 1289.93 214.752 1289.93 215.605C1289.93 216.458 1290.6 217.15 1291.43 217.15Z" fill="#4181E0" fill-opacity="0.34"/>
<path d="M1234.22 235.577C1234.22 235.883 1234.12 236.181 1233.96 236.436C1233.8 236.69 1233.56 236.888 1233.29 237.004C1233.01 237.121 1232.71 237.152 1232.42 237.092C1232.13 237.033 1231.86 236.885 1231.65 236.669C1231.44 236.453 1231.3 236.179 1231.24 235.878C1231.18 235.579 1231.21 235.268 1231.33 234.986C1231.44 234.704 1231.63 234.463 1231.88 234.293C1232.12 234.123 1232.42 234.033 1232.71 234.033C1233.11 234.033 1233.49 234.195 1233.77 234.485C1234.06 234.775 1234.22 235.168 1234.22 235.577Z" fill="#4181E0" fill-opacity="0.34"/>
<path d="M1253.79 235.577C1253.79 235.883 1253.7 236.181 1253.53 236.436C1253.37 236.69 1253.13 236.888 1252.86 237.004C1252.59 237.121 1252.29 237.152 1251.99 237.092C1251.7 237.033 1251.43 236.885 1251.23 236.669C1251.01 236.453 1250.87 236.179 1250.81 235.878C1250.76 235.579 1250.79 235.268 1250.9 234.986C1251.01 234.704 1251.21 234.463 1251.45 234.293C1251.7 234.123 1251.99 234.033 1252.29 234.033C1252.68 234.033 1253.06 234.195 1253.35 234.485C1253.62 234.775 1253.79 235.168 1253.79 235.577Z" fill="#4181E0" fill-opacity="0.34"/>
<path d="M1273.36 235.577C1273.36 235.883 1273.27 236.181 1273.1 236.436C1272.94 236.69 1272.71 236.888 1272.43 237.004C1272.16 237.121 1271.85 237.152 1271.57 237.092C1271.28 237.033 1271.01 236.885 1270.8 236.669C1270.59 236.453 1270.44 236.179 1270.39 235.878C1270.33 235.579 1270.36 235.268 1270.47 234.986C1270.59 234.704 1270.78 234.463 1271.03 234.293C1271.27 234.123 1271.56 234.033 1271.86 234.033C1272.26 234.033 1272.63 234.195 1272.92 234.485C1273.2 234.775 1273.36 235.168 1273.36 235.577Z" fill="#4181E0" fill-opacity="0.34"/>
<path d="M1292.92 235.577C1292.92 235.883 1292.84 236.181 1292.68 236.436C1292.51 236.69 1292.28 236.888 1292 237.004C1291.73 237.121 1291.42 237.152 1291.13 237.092C1290.84 237.033 1290.58 236.885 1290.36 236.669C1290.16 236.453 1290.02 236.179 1289.96 235.878C1289.9 235.579 1289.93 235.268 1290.04 234.986C1290.16 234.704 1290.35 234.463 1290.59 234.293C1290.84 234.123 1291.13 234.033 1291.42 234.033C1291.62 234.033 1291.82 234.073 1292 234.151C1292.18 234.228 1292.35 234.342 1292.49 234.485C1292.63 234.629 1292.74 234.799 1292.81 234.986C1292.89 235.174 1292.92 235.374 1292.92 235.577Z" fill="#4181E0" fill-opacity="0.34"/>
<path d="M1234.22 255.551C1234.22 255.856 1234.12 256.155 1233.96 256.408C1233.8 256.663 1233.56 256.86 1233.29 256.977C1233.01 257.094 1232.71 257.125 1232.42 257.065C1232.13 257.005 1231.86 256.858 1231.65 256.642C1231.44 256.426 1231.3 256.151 1231.24 255.851C1231.18 255.551 1231.21 255.241 1231.33 254.959C1231.44 254.676 1231.63 254.435 1231.88 254.265C1232.12 254.096 1232.42 254.005 1232.71 254.005C1232.91 254.005 1233.11 254.046 1233.29 254.123C1233.47 254.201 1233.63 254.314 1233.77 254.458C1233.92 254.602 1234.02 254.772 1234.1 254.96C1234.17 255.147 1234.22 255.348 1234.22 255.551Z" fill="#4181E0" fill-opacity="0.34"/>
<path d="M1253.79 255.551C1253.79 255.856 1253.7 256.155 1253.53 256.408C1253.37 256.663 1253.13 256.86 1252.86 256.977C1252.59 257.094 1252.28 257.125 1251.99 257.065C1251.7 257.005 1251.43 256.858 1251.23 256.642C1251.01 256.426 1250.87 256.151 1250.81 255.851C1250.76 255.551 1250.79 255.241 1250.9 254.959C1251.01 254.676 1251.21 254.435 1251.45 254.265C1251.7 254.096 1251.99 254.005 1252.29 254.005C1252.49 254.005 1252.68 254.046 1252.86 254.123C1253.04 254.201 1253.2 254.314 1253.35 254.458C1253.49 254.602 1253.6 254.772 1253.67 254.96C1253.75 255.147 1253.79 255.348 1253.79 255.551Z" fill="#4181E0" fill-opacity="0.34"/>
<path d="M1273.36 255.551C1273.36 255.856 1273.27 256.155 1273.1 256.408C1272.94 256.663 1272.71 256.86 1272.43 256.977C1272.16 257.094 1271.85 257.125 1271.56 257.065C1271.28 257.005 1271.01 256.858 1270.8 256.642C1270.59 256.426 1270.44 256.151 1270.39 255.851C1270.33 255.551 1270.36 255.241 1270.47 254.959C1270.59 254.676 1270.78 254.435 1271.03 254.265C1271.27 254.096 1271.56 254.005 1271.86 254.005C1272.26 254.005 1272.63 254.169 1272.92 254.458C1273.2 254.748 1273.36 255.141 1273.36 255.551Z" fill="#4181E0" fill-opacity="0.34"/>
<path d="M1292.92 255.551C1292.92 255.856 1292.84 256.155 1292.68 256.408C1292.51 256.663 1292.28 256.86 1292 256.977C1291.73 257.094 1291.42 257.125 1291.13 257.065C1290.84 257.005 1290.58 256.858 1290.36 256.642C1290.16 256.426 1290.02 256.151 1289.96 255.851C1289.9 255.551 1289.93 255.241 1290.04 254.959C1290.16 254.676 1290.35 254.435 1290.59 254.265C1290.84 254.096 1291.13 254.005 1291.43 254.005C1291.62 254.005 1291.82 254.046 1292 254.123C1292.18 254.201 1292.35 254.314 1292.49 254.458C1292.63 254.602 1292.74 254.772 1292.81 254.96C1292.89 255.147 1292.92 255.348 1292.92 255.551Z" fill="#4181E0" fill-opacity="0.34"/>
<path d="M1232.71 275.565C1233.54 275.565 1234.22 274.873 1234.22 274.02C1234.22 273.167 1233.54 272.475 1232.71 272.475C1231.88 272.475 1231.21 273.167 1231.21 274.02C1231.21 274.873 1231.88 275.565 1232.71 275.565Z" fill="#4181E0" fill-opacity="0.34"/>
<path d="M1252.29 275.565C1253.11 275.565 1253.79 274.873 1253.79 274.02C1253.79 273.167 1253.11 272.475 1252.29 272.475C1251.45 272.475 1250.79 273.167 1250.79 274.02C1250.79 274.873 1251.45 275.565 1252.29 275.565Z" fill="#4181E0" fill-opacity="0.34"/>
<path d="M1271.86 275.565C1272.68 275.565 1273.36 274.873 1273.36 274.02C1273.36 273.167 1272.68 272.475 1271.86 272.475C1271.03 272.475 1270.36 273.167 1270.36 274.02C1270.36 274.873 1271.03 275.565 1271.86 275.565Z" fill="#4181E0" fill-opacity="0.34"/>
<path d="M1291.43 275.565C1292.26 275.565 1292.93 274.873 1292.93 274.02C1292.93 273.167 1292.26 272.475 1291.43 272.475C1290.6 272.475 1289.93 273.167 1289.93 274.02C1289.93 274.873 1290.6 275.565 1291.43 275.565Z" fill="#4181E0" fill-opacity="0.34"/>
<path d="M1232.71 295.537C1233.54 295.537 1234.22 294.845 1234.22 293.992C1234.22 293.139 1233.54 292.448 1232.71 292.448C1231.88 292.448 1231.21 293.139 1231.21 293.992C1231.21 294.845 1231.88 295.537 1232.71 295.537Z" fill="#4181E0" fill-opacity="0.34"/>
<path d="M1252.29 295.537C1253.11 295.537 1253.79 294.845 1253.79 293.992C1253.79 293.139 1253.11 292.448 1252.29 292.448C1251.45 292.448 1250.79 293.139 1250.79 293.992C1250.79 294.845 1251.45 295.537 1252.29 295.537Z" fill="#4181E0" fill-opacity="0.34"/>
<path d="M1271.86 295.537C1272.68 295.537 1273.36 294.845 1273.36 293.992C1273.36 293.139 1272.68 292.448 1271.86 292.448C1271.03 292.448 1270.36 293.139 1270.36 293.992C1270.36 294.845 1271.03 295.537 1271.86 295.537Z" fill="#4181E0" fill-opacity="0.34"/>
<path d="M1291.43 295.537C1292.26 295.537 1292.93 294.845 1292.93 293.992C1292.93 293.139 1292.26 292.448 1291.43 292.448C1290.6 292.448 1289.93 293.139 1289.93 293.992C1289.93 294.845 1290.6 295.537 1291.43 295.537Z" fill="#4181E0" fill-opacity="0.34"/>
<path d="M1234.22 313.964C1234.22 314.27 1234.12 314.568 1233.96 314.822C1233.8 315.077 1233.56 315.274 1233.29 315.391C1233.01 315.508 1232.71 315.539 1232.42 315.479C1232.13 315.419 1231.86 315.272 1231.65 315.056C1231.44 314.84 1231.3 314.565 1231.24 314.265C1231.18 313.966 1231.21 313.655 1231.33 313.373C1231.44 313.091 1231.63 312.849 1231.88 312.679C1232.12 312.51 1232.42 312.419 1232.71 312.419C1233.11 312.419 1233.49 312.582 1233.77 312.872C1234.06 313.161 1234.22 313.555 1234.22 313.964Z" fill="#4181E0" fill-opacity="0.34"/>
<path d="M1253.79 313.964C1253.79 314.27 1253.7 314.568 1253.53 314.822C1253.37 315.077 1253.13 315.274 1252.86 315.391C1252.59 315.508 1252.29 315.539 1251.99 315.479C1251.7 315.419 1251.43 315.272 1251.23 315.056C1251.01 314.84 1250.87 314.565 1250.81 314.265C1250.76 313.966 1250.79 313.655 1250.9 313.373C1251.01 313.091 1251.21 312.849 1251.45 312.679C1251.7 312.51 1251.99 312.419 1252.29 312.419C1252.68 312.419 1253.06 312.582 1253.35 312.872C1253.62 313.161 1253.79 313.555 1253.79 313.964Z" fill="#4181E0" fill-opacity="0.34"/>
<path d="M1273.36 313.964C1273.36 314.27 1273.27 314.568 1273.1 314.822C1272.94 315.077 1272.71 315.274 1272.43 315.391C1272.16 315.508 1271.85 315.539 1271.57 315.479C1271.28 315.419 1271.01 315.272 1270.8 315.056C1270.59 314.84 1270.44 314.565 1270.39 314.265C1270.33 313.966 1270.36 313.655 1270.47 313.373C1270.59 313.091 1270.78 312.849 1271.03 312.679C1271.27 312.51 1271.56 312.419 1271.86 312.419C1272.26 312.419 1272.63 312.582 1272.92 312.872C1273.2 313.161 1273.36 313.555 1273.36 313.964Z" fill="#4181E0" fill-opacity="0.34"/>
<path d="M1292.92 313.964C1292.92 314.27 1292.84 314.568 1292.68 314.822C1292.51 315.077 1292.28 315.274 1292 315.391C1291.73 315.508 1291.42 315.539 1291.13 315.479C1290.84 315.419 1290.58 315.272 1290.36 315.056C1290.16 314.84 1290.02 314.565 1289.96 314.265C1289.9 313.966 1289.93 313.655 1290.04 313.373C1290.16 313.091 1290.35 312.849 1290.59 312.679C1290.84 312.51 1291.13 312.419 1291.42 312.419C1291.62 312.419 1291.82 312.46 1292 312.537C1292.18 312.615 1292.35 312.729 1292.49 312.872C1292.63 313.016 1292.74 313.186 1292.81 313.373C1292.89 313.561 1292.92 313.761 1292.92 313.964Z" fill="#4181E0" fill-opacity="0.34"/>
<path d="M1234.22 333.938C1234.22 334.243 1234.12 334.542 1233.96 334.795C1233.8 335.05 1233.56 335.247 1233.29 335.364C1233.01 335.481 1232.71 335.512 1232.42 335.452C1232.13 335.392 1231.86 335.245 1231.65 335.029C1231.44 334.813 1231.3 334.538 1231.24 334.238C1231.18 333.938 1231.21 333.628 1231.33 333.346C1231.44 333.063 1231.63 332.822 1231.88 332.652C1232.12 332.483 1232.42 332.392 1232.71 332.392C1232.91 332.392 1233.11 332.433 1233.29 332.51C1233.47 332.588 1233.63 332.701 1233.77 332.845C1233.92 332.989 1234.02 333.159 1234.1 333.347C1234.17 333.534 1234.22 333.735 1234.22 333.938Z" fill="#4181E0" fill-opacity="0.34"/>
<path d="M1253.79 333.938C1253.79 334.243 1253.7 334.542 1253.53 334.795C1253.37 335.05 1253.13 335.247 1252.86 335.364C1252.59 335.481 1252.28 335.512 1251.99 335.452C1251.7 335.392 1251.43 335.245 1251.23 335.029C1251.01 334.813 1250.87 334.538 1250.81 334.238C1250.76 333.938 1250.79 333.628 1250.9 333.346C1251.01 333.063 1251.21 332.822 1251.45 332.652C1251.7 332.483 1251.99 332.392 1252.29 332.392C1252.49 332.392 1252.68 332.433 1252.86 332.51C1253.04 332.588 1253.2 332.701 1253.35 332.845C1253.49 332.989 1253.6 333.159 1253.67 333.347C1253.75 333.534 1253.79 333.735 1253.79 333.938Z" fill="#4181E0" fill-opacity="0.34"/>
<path d="M1273.36 333.938C1273.36 334.243 1273.27 334.542 1273.1 334.795C1272.94 335.05 1272.71 335.247 1272.43 335.364C1272.16 335.481 1271.85 335.512 1271.56 335.452C1271.28 335.392 1271.01 335.245 1270.8 335.029C1270.59 334.813 1270.44 334.538 1270.39 334.238C1270.33 333.938 1270.36 333.628 1270.47 333.346C1270.59 333.063 1270.78 332.822 1271.03 332.652C1271.27 332.483 1271.56 332.392 1271.86 332.392C1272.26 332.392 1272.63 332.556 1272.92 332.845C1273.2 333.135 1273.36 333.528 1273.36 333.938Z" fill="#4181E0" fill-opacity="0.34"/>
<path d="M1292.92 333.938C1292.92 334.243 1292.84 334.542 1292.68 334.795C1292.51 335.05 1292.28 335.247 1292 335.364C1291.73 335.481 1291.42 335.512 1291.13 335.452C1290.84 335.392 1290.58 335.245 1290.36 335.029C1290.16 334.813 1290.02 334.538 1289.96 334.238C1289.9 333.938 1289.93 333.628 1290.04 333.346C1290.16 333.063 1290.35 332.822 1290.59 332.652C1290.84 332.483 1291.13 332.392 1291.43 332.392C1291.62 332.392 1291.82 332.433 1292 332.51C1292.18 332.588 1292.35 332.701 1292.49 332.845C1292.63 332.989 1292.74 333.159 1292.81 333.347C1292.89 333.534 1292.92 333.735 1292.92 333.938Z" fill="#4181E0" fill-opacity="0.34"/>
<path d="M1308.66 275.565C1309.49 275.565 1310.16 274.873 1310.16 274.02C1310.16 273.167 1309.49 272.475 1308.66 272.475C1307.83 272.475 1307.16 273.167 1307.16 274.02C1307.16 274.873 1307.83 275.565 1308.66 275.565Z" fill="#4181E0" fill-opacity="0.34"/>
<path d="M1328.23 275.565C1329.06 275.565 1329.73 274.873 1329.73 274.02C1329.73 273.167 1329.06 272.475 1328.23 272.475C1327.4 272.475 1326.73 273.167 1326.73 274.02C1326.73 274.873 1327.4 275.565 1328.23 275.565Z" fill="#4181E0" fill-opacity="0.34"/>
<path d="M1347.8 275.565C1348.63 275.565 1349.3 274.873 1349.3 274.02C1349.3 273.167 1348.63 272.475 1347.8 272.475C1346.97 272.475 1346.3 273.167 1346.3 274.02C1346.3 274.873 1346.97 275.565 1347.8 275.565Z" fill="#4181E0" fill-opacity="0.34"/>
<path d="M1308.66 295.537C1309.49 295.537 1310.16 294.845 1310.16 293.992C1310.16 293.139 1309.49 292.448 1308.66 292.448C1307.83 292.448 1307.16 293.139 1307.16 293.992C1307.16 294.845 1307.83 295.537 1308.66 295.537Z" fill="#4181E0" fill-opacity="0.34"/>
<path d="M1328.23 295.537C1329.06 295.537 1329.73 294.845 1329.73 293.992C1329.73 293.139 1329.06 292.448 1328.23 292.448C1327.4 292.448 1326.73 293.139 1326.73 293.992C1326.73 294.845 1327.4 295.537 1328.23 295.537Z" fill="#4181E0" fill-opacity="0.34"/>
<path d="M1347.8 295.537C1348.63 295.537 1349.3 294.845 1349.3 293.992C1349.3 293.139 1348.63 292.448 1347.8 292.448C1346.97 292.448 1346.3 293.139 1346.3 293.992C1346.3 294.845 1346.97 295.537 1347.8 295.537Z" fill="#4181E0" fill-opacity="0.34"/>
<path d="M1310.16 313.964C1310.16 314.27 1310.07 314.568 1309.91 314.822C1309.74 315.077 1309.51 315.274 1309.23 315.391C1308.96 315.508 1308.66 315.539 1308.36 315.479C1308.07 315.419 1307.81 315.272 1307.6 315.056C1307.39 314.84 1307.25 314.565 1307.19 314.265C1307.13 313.966 1307.16 313.655 1307.27 313.373C1307.39 313.091 1307.58 312.849 1307.82 312.679C1308.07 312.51 1308.36 312.419 1308.66 312.419C1309.05 312.419 1309.44 312.582 1309.72 312.872C1310 313.161 1310.16 313.555 1310.16 313.964Z" fill="#4181E0" fill-opacity="0.34"/>
<path d="M1329.73 313.964C1329.73 314.27 1329.64 314.568 1329.48 314.822C1329.31 315.077 1329.08 315.274 1328.8 315.391C1328.53 315.508 1328.23 315.539 1327.94 315.479C1327.64 315.419 1327.38 315.272 1327.17 315.056C1326.96 314.84 1326.82 314.565 1326.75 314.265C1326.7 313.966 1326.73 313.655 1326.84 313.373C1326.95 313.091 1327.15 312.849 1327.4 312.679C1327.64 312.51 1327.94 312.419 1328.23 312.419C1328.63 312.419 1329.01 312.582 1329.29 312.872C1329.57 313.161 1329.73 313.555 1329.73 313.964Z" fill="#4181E0" fill-opacity="0.34"/>
<path d="M1349.3 313.964C1349.3 314.27 1349.22 314.568 1349.05 314.822C1348.88 315.077 1348.65 315.274 1348.38 315.391C1348.1 315.508 1347.8 315.539 1347.51 315.479C1347.22 315.419 1346.95 315.272 1346.74 315.056C1346.53 314.84 1346.38 314.565 1346.33 314.265C1346.27 313.966 1346.3 313.655 1346.41 313.373C1346.53 313.091 1346.72 312.849 1346.97 312.679C1347.22 312.51 1347.5 312.419 1347.8 312.419C1348.2 312.419 1348.58 312.582 1348.86 312.872C1349.14 313.161 1349.3 313.555 1349.3 313.964Z" fill="#4181E0" fill-opacity="0.34"/>
<path d="M1310.16 333.938C1310.16 334.243 1310.07 334.542 1309.91 334.795C1309.74 335.05 1309.51 335.247 1309.23 335.364C1308.96 335.481 1308.66 335.512 1308.36 335.452C1308.07 335.392 1307.81 335.245 1307.6 335.029C1307.39 334.813 1307.25 334.538 1307.19 334.238C1307.13 333.938 1307.16 333.628 1307.27 333.346C1307.39 333.063 1307.58 332.822 1307.82 332.652C1308.07 332.483 1308.36 332.392 1308.66 332.392C1308.85 332.392 1309.05 332.433 1309.23 332.51C1309.42 332.588 1309.58 332.701 1309.72 332.845C1309.86 332.989 1309.97 333.159 1310.04 333.347C1310.12 333.534 1310.16 333.735 1310.16 333.938Z" fill="#4181E0" fill-opacity="0.34"/>
<path d="M1329.73 333.938C1329.73 334.243 1329.64 334.542 1329.48 334.795C1329.31 335.05 1329.07 335.247 1328.8 335.364C1328.53 335.481 1328.23 335.512 1327.94 335.452C1327.64 335.392 1327.38 335.245 1327.17 335.029C1326.96 334.813 1326.82 334.538 1326.75 334.238C1326.7 333.938 1326.73 333.628 1326.84 333.346C1326.95 333.063 1327.15 332.822 1327.4 332.652C1327.64 332.483 1327.94 332.392 1328.23 332.392C1328.43 332.392 1328.62 332.433 1328.8 332.51C1328.99 332.588 1329.15 332.701 1329.29 332.845C1329.43 332.989 1329.54 333.159 1329.61 333.347C1329.69 333.534 1329.73 333.735 1329.73 333.938Z" fill="#4181E0" fill-opacity="0.34"/>
<path d="M1349.3 333.938C1349.3 334.243 1349.22 334.542 1349.05 334.795C1348.88 335.05 1348.65 335.247 1348.38 335.364C1348.1 335.481 1347.8 335.512 1347.51 335.452C1347.22 335.392 1346.95 335.245 1346.74 335.029C1346.53 334.813 1346.38 334.538 1346.33 334.238C1346.27 333.938 1346.3 333.628 1346.41 333.346C1346.53 333.063 1346.72 332.822 1346.97 332.652C1347.22 332.483 1347.5 332.392 1347.8 332.392C1348.2 332.392 1348.58 332.556 1348.86 332.845C1349.14 333.135 1349.3 333.528 1349.3 333.938Z" fill="#4181E0" fill-opacity="0.34"/>
<path d="M1232.71 353.952C1233.54 353.952 1234.22 353.26 1234.22 352.407C1234.22 351.554 1233.54 350.862 1232.71 350.862C1231.88 350.862 1231.21 351.554 1231.21 352.407C1231.21 353.26 1231.88 353.952 1232.71 353.952Z" fill="#4181E0" fill-opacity="0.34"/>
<path d="M1252.29 353.952C1253.11 353.952 1253.79 353.26 1253.79 352.407C1253.79 351.554 1253.11 350.862 1252.29 350.862C1251.45 350.862 1250.79 351.554 1250.79 352.407C1250.79 353.26 1251.45 353.952 1252.29 353.952Z" fill="#4181E0" fill-opacity="0.34"/>
<path d="M1271.86 353.952C1272.68 353.952 1273.36 353.26 1273.36 352.407C1273.36 351.554 1272.68 350.862 1271.86 350.862C1271.03 350.862 1270.36 351.554 1270.36 352.407C1270.36 353.26 1271.03 353.952 1271.86 353.952Z" fill="#4181E0" fill-opacity="0.34"/>
<path d="M1291.43 353.952C1292.26 353.952 1292.93 353.26 1292.93 352.407C1292.93 351.554 1292.26 350.862 1291.43 350.862C1290.6 350.862 1289.93 351.554 1289.93 352.407C1289.93 353.26 1290.6 353.952 1291.43 353.952Z" fill="#4181E0" fill-opacity="0.34"/>
<path d="M1232.71 373.924C1233.54 373.924 1234.22 373.232 1234.22 372.379C1234.22 371.526 1233.54 370.834 1232.71 370.834C1231.88 370.834 1231.21 371.526 1231.21 372.379C1231.21 373.232 1231.88 373.924 1232.71 373.924Z" fill="#4181E0" fill-opacity="0.34"/>
<path d="M1252.29 373.924C1253.11 373.924 1253.79 373.232 1253.79 372.379C1253.79 371.526 1253.11 370.834 1252.29 370.834C1251.45 370.834 1250.79 371.526 1250.79 372.379C1250.79 373.232 1251.45 373.924 1252.29 373.924Z" fill="#4181E0" fill-opacity="0.34"/>
<path d="M1271.86 373.924C1272.68 373.924 1273.36 373.232 1273.36 372.379C1273.36 371.526 1272.68 370.834 1271.86 370.834C1271.03 370.834 1270.36 371.526 1270.36 372.379C1270.36 373.232 1271.03 373.924 1271.86 373.924Z" fill="#4181E0" fill-opacity="0.34"/>
<path d="M1291.43 373.924C1292.26 373.924 1292.93 373.232 1292.93 372.379C1292.93 371.526 1292.26 370.834 1291.43 370.834C1290.6 370.834 1289.93 371.526 1289.93 372.379C1289.93 373.232 1290.6 373.924 1291.43 373.924Z" fill="#4181E0" fill-opacity="0.34"/>
<path d="M1234.22 392.351C1234.22 392.656 1234.12 392.955 1233.96 393.209C1233.8 393.464 1233.56 393.661 1233.29 393.778C1233.01 393.895 1232.71 393.926 1232.42 393.866C1232.13 393.806 1231.86 393.659 1231.65 393.443C1231.44 393.227 1231.3 392.952 1231.24 392.652C1231.18 392.352 1231.21 392.042 1231.33 391.76C1231.44 391.478 1231.63 391.236 1231.88 391.066C1232.12 390.897 1232.42 390.806 1232.71 390.806C1233.11 390.806 1233.49 390.969 1233.77 391.259C1234.06 391.548 1234.22 391.942 1234.22 392.351Z" fill="#4181E0" fill-opacity="0.34"/>
<path d="M1253.79 392.351C1253.79 392.656 1253.7 392.955 1253.53 393.209C1253.37 393.464 1253.13 393.661 1252.86 393.778C1252.59 393.895 1252.29 393.926 1251.99 393.866C1251.7 393.806 1251.43 393.659 1251.23 393.443C1251.01 393.227 1250.87 392.952 1250.81 392.652C1250.76 392.352 1250.79 392.042 1250.9 391.76C1251.01 391.478 1251.21 391.236 1251.45 391.066C1251.7 390.897 1251.99 390.806 1252.29 390.806C1252.68 390.806 1253.06 390.969 1253.35 391.259C1253.62 391.548 1253.79 391.942 1253.79 392.351Z" fill="#4181E0" fill-opacity="0.34"/>
<path d="M1273.36 392.351C1273.36 392.656 1273.27 392.955 1273.1 393.209C1272.94 393.464 1272.71 393.661 1272.43 393.778C1272.16 393.895 1271.85 393.926 1271.57 393.866C1271.28 393.806 1271.01 393.659 1270.8 393.443C1270.59 393.227 1270.44 392.952 1270.39 392.652C1270.33 392.352 1270.36 392.042 1270.47 391.76C1270.59 391.478 1270.78 391.236 1271.03 391.066C1271.27 390.897 1271.56 390.806 1271.86 390.806C1272.26 390.806 1272.63 390.969 1272.92 391.259C1273.2 391.548 1273.36 391.942 1273.36 392.351Z" fill="#4181E0" fill-opacity="0.34"/>
<path d="M1292.92 392.351C1292.92 392.656 1292.84 392.955 1292.68 393.209C1292.51 393.464 1292.28 393.661 1292 393.778C1291.73 393.895 1291.42 393.926 1291.13 393.866C1290.84 393.806 1290.58 393.659 1290.36 393.443C1290.16 393.227 1290.02 392.952 1289.96 392.652C1289.9 392.352 1289.93 392.042 1290.04 391.76C1290.16 391.478 1290.35 391.236 1290.59 391.066C1290.84 390.897 1291.13 390.806 1291.42 390.806C1291.62 390.806 1291.82 390.847 1292 390.924C1292.18 391.002 1292.35 391.115 1292.49 391.259C1292.63 391.403 1292.74 391.572 1292.81 391.76C1292.89 391.947 1292.92 392.148 1292.92 392.351Z" fill="#4181E0" fill-opacity="0.34"/>
<path d="M1234.22 412.325C1234.22 412.63 1234.12 412.929 1233.96 413.182C1233.8 413.436 1233.56 413.634 1233.29 413.751C1233.01 413.868 1232.71 413.898 1232.42 413.838C1232.13 413.779 1231.86 413.632 1231.65 413.416C1231.44 413.2 1231.3 412.924 1231.24 412.625C1231.18 412.325 1231.21 412.015 1231.33 411.733C1231.44 411.45 1231.63 411.209 1231.88 411.039C1232.12 410.87 1232.42 410.779 1232.71 410.779C1232.91 410.779 1233.11 410.819 1233.29 410.897C1233.47 410.975 1233.63 411.088 1233.77 411.232C1233.92 411.375 1234.02 411.546 1234.1 411.734C1234.17 411.921 1234.22 412.122 1234.22 412.325Z" fill="#4181E0" fill-opacity="0.34"/>
<path d="M1253.79 412.325C1253.79 412.63 1253.7 412.929 1253.53 413.182C1253.37 413.436 1253.13 413.634 1252.86 413.751C1252.59 413.868 1252.28 413.898 1251.99 413.838C1251.7 413.779 1251.43 413.632 1251.23 413.416C1251.01 413.2 1250.87 412.924 1250.81 412.625C1250.76 412.325 1250.79 412.015 1250.9 411.733C1251.01 411.45 1251.21 411.209 1251.45 411.039C1251.7 410.87 1251.99 410.779 1252.29 410.779C1252.49 410.779 1252.68 410.819 1252.86 410.897C1253.04 410.975 1253.2 411.088 1253.35 411.232C1253.49 411.375 1253.6 411.546 1253.67 411.734C1253.75 411.921 1253.79 412.122 1253.79 412.325Z" fill="#4181E0" fill-opacity="0.34"/>
<path d="M1273.36 412.325C1273.36 412.63 1273.27 412.929 1273.1 413.182C1272.94 413.436 1272.71 413.634 1272.43 413.751C1272.16 413.868 1271.85 413.898 1271.56 413.838C1271.28 413.779 1271.01 413.632 1270.8 413.416C1270.59 413.2 1270.44 412.924 1270.39 412.625C1270.33 412.325 1270.36 412.015 1270.47 411.733C1270.59 411.45 1270.78 411.209 1271.03 411.039C1271.27 410.87 1271.56 410.779 1271.86 410.779C1272.26 410.779 1272.63 410.943 1272.92 411.232C1273.2 411.522 1273.36 411.915 1273.36 412.325Z" fill="#4181E0" fill-opacity="0.34"/>
<path d="M1292.92 412.325C1292.92 412.63 1292.84 412.929 1292.68 413.182C1292.51 413.436 1292.28 413.634 1292 413.751C1291.73 413.868 1291.42 413.898 1291.13 413.838C1290.84 413.779 1290.58 413.632 1290.36 413.416C1290.16 413.2 1290.02 412.924 1289.96 412.625C1289.9 412.325 1289.93 412.015 1290.04 411.733C1290.16 411.45 1290.35 411.209 1290.59 411.039C1290.84 410.87 1291.13 410.779 1291.43 410.779C1291.62 410.779 1291.82 410.819 1292 410.897C1292.18 410.975 1292.35 411.088 1292.49 411.232C1292.63 411.375 1292.74 411.546 1292.81 411.734C1292.89 411.921 1292.92 412.122 1292.92 412.325Z" fill="#4181E0" fill-opacity="0.34"/>
<path d="M1308.66 353.952C1309.49 353.952 1310.16 353.26 1310.16 352.407C1310.16 351.554 1309.49 350.862 1308.66 350.862C1307.83 350.862 1307.16 351.554 1307.16 352.407C1307.16 353.26 1307.83 353.952 1308.66 353.952Z" fill="#4181E0" fill-opacity="0.34"/>
<path d="M1328.23 353.952C1329.06 353.952 1329.73 353.26 1329.73 352.407C1329.73 351.554 1329.06 350.862 1328.23 350.862C1327.4 350.862 1326.73 351.554 1326.73 352.407C1326.73 353.26 1327.4 353.952 1328.23 353.952Z" fill="#4181E0" fill-opacity="0.34"/>
<path d="M1347.8 353.952C1348.63 353.952 1349.3 353.26 1349.3 352.407C1349.3 351.554 1348.63 350.862 1347.8 350.862C1346.97 350.862 1346.3 351.554 1346.3 352.407C1346.3 353.26 1346.97 353.952 1347.8 353.952Z" fill="#4181E0" fill-opacity="0.34"/>
<path d="M1308.66 373.924C1309.49 373.924 1310.16 373.232 1310.16 372.379C1310.16 371.526 1309.49 370.834 1308.66 370.834C1307.83 370.834 1307.16 371.526 1307.16 372.379C1307.16 373.232 1307.83 373.924 1308.66 373.924Z" fill="#4181E0" fill-opacity="0.34"/>
<path d="M1328.23 373.924C1329.06 373.924 1329.73 373.232 1329.73 372.379C1329.73 371.526 1329.06 370.834 1328.23 370.834C1327.4 370.834 1326.73 371.526 1326.73 372.379C1326.73 373.232 1327.4 373.924 1328.23 373.924Z" fill="#4181E0" fill-opacity="0.34"/>
<path d="M1347.8 373.924C1348.63 373.924 1349.3 373.232 1349.3 372.379C1349.3 371.526 1348.63 370.834 1347.8 370.834C1346.97 370.834 1346.3 371.526 1346.3 372.379C1346.3 373.232 1346.97 373.924 1347.8 373.924Z" fill="#4181E0" fill-opacity="0.34"/>
<path d="M1310.16 392.351C1310.16 392.656 1310.07 392.955 1309.91 393.209C1309.74 393.464 1309.51 393.661 1309.23 393.778C1308.96 393.895 1308.66 393.926 1308.36 393.866C1308.07 393.806 1307.81 393.659 1307.6 393.443C1307.39 393.227 1307.25 392.952 1307.19 392.652C1307.13 392.352 1307.16 392.042 1307.27 391.76C1307.39 391.478 1307.58 391.236 1307.82 391.066C1308.07 390.897 1308.36 390.806 1308.66 390.806C1309.05 390.806 1309.44 390.969 1309.72 391.259C1310 391.548 1310.16 391.942 1310.16 392.351Z" fill="#4181E0" fill-opacity="0.34"/>
<path d="M1329.73 392.351C1329.73 392.656 1329.64 392.955 1329.48 393.209C1329.31 393.464 1329.08 393.661 1328.8 393.778C1328.53 393.895 1328.23 393.926 1327.94 393.866C1327.64 393.806 1327.38 393.659 1327.17 393.443C1326.96 393.227 1326.82 392.952 1326.75 392.652C1326.7 392.352 1326.73 392.042 1326.84 391.76C1326.95 391.478 1327.15 391.236 1327.4 391.066C1327.64 390.897 1327.94 390.806 1328.23 390.806C1328.63 390.806 1329.01 390.969 1329.29 391.259C1329.57 391.548 1329.73 391.942 1329.73 392.351Z" fill="#4181E0" fill-opacity="0.34"/>
<path d="M1349.3 392.351C1349.3 392.656 1349.22 392.955 1349.05 393.209C1348.88 393.464 1348.65 393.661 1348.38 393.778C1348.1 393.895 1347.8 393.926 1347.51 393.866C1347.22 393.806 1346.95 393.659 1346.74 393.443C1346.53 393.227 1346.38 392.952 1346.33 392.652C1346.27 392.352 1346.3 392.042 1346.41 391.76C1346.53 391.478 1346.72 391.236 1346.97 391.066C1347.22 390.897 1347.5 390.806 1347.8 390.806C1348.2 390.806 1348.58 390.969 1348.86 391.259C1349.14 391.548 1349.3 391.942 1349.3 392.351Z" fill="#4181E0" fill-opacity="0.34"/>
<path d="M1310.16 412.325C1310.16 412.63 1310.07 412.929 1309.91 413.182C1309.74 413.436 1309.51 413.634 1309.23 413.751C1308.96 413.868 1308.66 413.898 1308.36 413.838C1308.07 413.779 1307.81 413.632 1307.6 413.416C1307.39 413.2 1307.25 412.924 1307.19 412.625C1307.13 412.325 1307.16 412.015 1307.27 411.733C1307.39 411.45 1307.58 411.209 1307.82 411.039C1308.07 410.87 1308.36 410.779 1308.66 410.779C1308.85 410.779 1309.05 410.819 1309.23 410.897C1309.42 410.975 1309.58 411.088 1309.72 411.232C1309.86 411.375 1309.97 411.546 1310.04 411.734C1310.12 411.921 1310.16 412.122 1310.16 412.325Z" fill="#4181E0" fill-opacity="0.34"/>
<path d="M1329.73 412.325C1329.73 412.63 1329.64 412.929 1329.48 413.182C1329.31 413.436 1329.07 413.634 1328.8 413.751C1328.53 413.868 1328.23 413.898 1327.94 413.838C1327.64 413.779 1327.38 413.632 1327.17 413.416C1326.96 413.2 1326.82 412.924 1326.75 412.625C1326.7 412.325 1326.73 412.015 1326.84 411.733C1326.95 411.45 1327.15 411.209 1327.4 411.039C1327.64 410.87 1327.94 410.779 1328.23 410.779C1328.43 410.779 1328.62 410.819 1328.8 410.897C1328.99 410.975 1329.15 411.088 1329.29 411.232C1329.43 411.375 1329.54 411.546 1329.61 411.734C1329.69 411.921 1329.73 412.122 1329.73 412.325Z" fill="#4181E0" fill-opacity="0.34"/>
<path d="M1349.3 412.325C1349.3 412.63 1349.22 412.929 1349.05 413.182C1348.88 413.436 1348.65 413.634 1348.38 413.751C1348.1 413.868 1347.8 413.898 1347.51 413.838C1347.22 413.779 1346.95 413.632 1346.74 413.416C1346.53 413.2 1346.38 412.924 1346.33 412.625C1346.27 412.325 1346.3 412.015 1346.41 411.733C1346.53 411.45 1346.72 411.209 1346.97 411.039C1347.22 410.87 1347.5 410.779 1347.8 410.779C1348.2 410.779 1348.58 410.943 1348.86 411.232C1349.14 411.522 1349.3 411.915 1349.3 412.325Z" fill="#4181E0" fill-opacity="0.34"/>
</svg>
