<svg width="19" height="59" viewBox="0 0 19 59" fill="none" xmlns="http://www.w3.org/2000/svg">
<path d="M2.67115 4.38892C3.81789 4.38892 4.74825 3.49574 4.74825 2.3938C4.74825 1.29286 3.81789 0.399658 2.67115 0.399658C1.52441 0.399658 0.594055 1.29286 0.594055 2.3938C0.594055 3.49574 1.52441 4.38892 2.67115 4.38892Z" fill="#A2BADD"/>
<path d="M18.8478 2.39379C18.8478 2.7892 18.7265 3.17456 18.4976 3.50273C18.2697 3.83091 17.9456 4.08581 17.5662 4.23735C17.1867 4.38789 16.7686 4.42804 16.3661 4.35077C15.9626 4.27349 15.5926 4.0838 15.302 3.80481C15.0114 3.52581 14.8138 3.17056 14.7344 2.78318C14.6539 2.3968 14.6946 1.99535 14.8525 1.63105C15.0093 1.26675 15.2758 0.954634 15.6166 0.735852C15.9584 0.516066 16.3599 0.399658 16.7707 0.399658C17.0435 0.399658 17.3142 0.450842 17.5662 0.551201C17.8181 0.65156 18.0471 0.798083 18.2404 0.983747C18.4328 1.16841 18.5854 1.38919 18.6899 1.63105C18.7945 1.87292 18.8478 2.13185 18.8478 2.39379Z" fill="#A2BADD"/>
<path d="M4.74718 15.9363C4.74718 16.3307 4.62488 16.7161 4.397 17.0443C4.16911 17.3725 3.84401 17.6284 3.46455 17.7789C3.08509 17.9295 2.66798 17.9696 2.26448 17.8924C1.86202 17.8151 1.49197 17.6254 1.20136 17.3464C0.910757 17.0674 0.71318 16.7111 0.632689 16.3247C0.553242 15.9373 0.594025 15.5369 0.751872 15.1716C0.908674 14.8073 1.17523 14.4961 1.51706 14.2774C1.85889 14.0576 2.26031 13.9412 2.67113 13.9412C3.22202 13.9412 3.74992 14.1519 4.13878 14.5263C4.5287 14.8996 4.74718 15.4074 4.74718 15.9363Z" fill="#A2BADD"/>
<path d="M18.8478 15.9363C18.8478 16.3307 18.7265 16.7161 18.4976 17.0443C18.2697 17.3725 17.9456 17.6284 17.5662 17.7789C17.1867 17.9295 16.7686 17.9696 16.3661 17.8924C15.9626 17.8151 15.5926 17.6254 15.302 17.3464C15.0114 17.0674 14.8138 16.7121 14.7344 16.3247C14.6539 15.9383 14.6946 15.5369 14.8525 15.1726C15.0093 14.8083 15.2758 14.4961 15.6166 14.2774C15.9584 14.0586 16.3599 13.9412 16.7707 13.9412C17.3216 13.9412 17.8505 14.1509 18.2394 14.5253C18.6293 14.8996 18.8478 15.4074 18.8478 15.9363Z" fill="#A2BADD"/>
<path d="M4.74715 29.4779C4.74611 29.8723 4.62379 30.2577 4.39486 30.5849C4.16593 30.9121 3.8419 31.168 3.46139 31.3175C3.08193 31.468 2.66484 31.5072 2.26238 31.4299C1.85887 31.3526 1.48987 31.162 1.19926 30.883C0.909699 30.603 0.712105 30.2477 0.632658 29.8613C0.553212 29.4739 0.593995 29.0735 0.751842 28.7092C0.90969 28.3448 1.17625 28.0337 1.51703 27.815C1.85886 27.5952 2.26028 27.4788 2.6711 27.4788C2.94393 27.4788 3.21466 27.5309 3.46659 27.6313C3.71852 27.7316 3.94747 27.8792 4.14086 28.0648C4.33321 28.2505 4.48582 28.4713 4.59035 28.7132C4.69489 28.956 4.7482 29.216 4.74715 29.4779Z" fill="#A2BADD"/>
<path d="M18.8478 29.4778C18.8478 29.8722 18.7265 30.2576 18.4976 30.5858C18.2697 30.914 17.9456 31.1699 17.5662 31.3204C17.1867 31.472 16.7686 31.5111 16.3661 31.4338C15.9626 31.3575 15.5926 31.1669 15.302 30.8879C15.0114 30.6089 14.8138 30.2536 14.7344 29.8672C14.6539 29.4798 14.6946 29.0784 14.8525 28.7141C15.0093 28.3498 15.2758 28.0387 15.6166 27.8189C15.9584 27.6001 16.3599 27.4827 16.7707 27.4827C17.3216 27.4827 17.8505 27.6934 18.2394 28.0668C18.6293 28.4411 18.8478 28.9489 18.8478 29.4778Z" fill="#A2BADD"/>
<path d="M4.74718 43.0193C4.74718 43.4138 4.62488 43.7991 4.397 44.1273C4.16911 44.4555 3.84401 44.7114 3.46455 44.8619C3.08509 45.0135 2.66798 45.0526 2.26448 44.9754C1.86202 44.8991 1.49197 44.7084 1.20136 44.4294C0.910757 44.1504 0.71318 43.7951 0.632689 43.4077C0.553242 43.0213 0.594025 42.6199 0.751872 42.2556C0.908674 41.8913 1.17523 41.5792 1.51706 41.3604C1.85889 41.1416 2.26031 41.0242 2.67113 41.0242C2.94396 41.0242 3.21367 41.0764 3.4656 41.1767C3.71753 41.2771 3.94645 41.4236 4.13984 41.6093C4.33218 41.7939 4.48479 42.0137 4.58933 42.2556C4.69386 42.4985 4.74718 42.7574 4.74718 43.0193Z" fill="#A2BADD"/>
<path d="M18.8478 43.0193C18.8478 43.4138 18.7265 43.7991 18.4976 44.1273C18.2697 44.4555 17.9456 44.7114 17.5662 44.8619C17.1867 45.0135 16.7686 45.0526 16.3661 44.9754C15.9626 44.8991 15.5926 44.7084 15.302 44.4294C15.0114 44.1504 14.8138 43.7951 14.7344 43.4087C14.6539 43.0213 14.6946 42.6209 14.8525 42.2556C15.0093 41.8913 15.2758 41.5802 15.6166 41.3604C15.9584 41.1416 16.3599 41.0242 16.7707 41.0242C17.0435 41.0242 17.3142 41.0764 17.5662 41.1757C17.8181 41.2761 18.0471 41.4236 18.2404 41.6083C18.4328 41.7939 18.5854 42.0137 18.6899 42.2556C18.7945 42.4975 18.8478 42.7574 18.8478 43.0193Z" fill="#A2BADD"/>
<path d="M2.67115 58.556C3.81789 58.556 4.74825 57.6628 4.74825 56.5608C4.74825 55.4589 3.81789 54.5667 2.67115 54.5667C1.52441 54.5667 0.594055 55.4589 0.594055 56.5608C0.594055 57.6628 1.52441 58.556 2.67115 58.556Z" fill="#A2BADD"/>
<path d="M18.8478 56.5598C18.8478 56.9543 18.7265 57.3407 18.4986 57.6688C18.2707 57.997 17.9456 58.2529 17.5662 58.4035C17.1867 58.555 16.7696 58.5941 16.3661 58.5179C15.9637 58.4406 15.5936 58.2509 15.303 57.9719C15.0124 57.6929 14.8138 57.3376 14.7344 56.9502C14.6539 56.5639 14.6946 56.1624 14.8525 55.7981C15.0093 55.4338 15.2758 55.1217 15.6166 54.9029C15.9584 54.6831 16.3599 54.5667 16.7707 54.5667C17.0435 54.5657 17.3142 54.6178 17.5662 54.7182C17.8181 54.8176 18.047 54.9651 18.2394 55.1498C18.4328 55.3354 18.5854 55.5552 18.6899 55.7971C18.7945 56.0389 18.8478 56.2979 18.8478 56.5598Z" fill="#A2BADD"/>
</svg>
