<svg width="111" height="111" viewBox="0 0 111 111" fill="none" xmlns="http://www.w3.org/2000/svg">
<g filter="url(#filter0_d)">
<path d="M29.3931 47.7944C29.3931 37.8533 37.4519 29.7944 47.3931 29.7944H63.3931C73.3342 29.7944 81.3931 37.8533 81.3931 47.7944V63.7944C81.3931 73.7356 73.3342 81.7944 63.3931 81.7944H47.3931C37.4519 81.7944 29.3931 73.7356 29.3931 63.7944V47.7944Z" fill="white"/>
</g>
<path d="M45.1841 48.0514L52.7571 55.7944L51.3741 57.2084L48.0038 53.7624C47.5709 54.513 47.3895 55.3875 47.4872 56.2531C47.5849 57.1187 47.9564 57.928 48.5451 58.558C49.1339 59.188 49.9078 59.6041 50.7491 59.7432C51.5904 59.8823 52.453 59.7367 53.206 59.3286C53.9589 58.9204 54.5609 58.2721 54.9205 57.4821C55.28 56.692 55.3774 55.8036 55.1979 54.9518C55.0183 54.1 54.5717 53.3315 53.9258 52.763C53.2799 52.1945 52.4701 51.8573 51.6196 51.8024L49.8543 49.9974C51.1885 49.6316 52.6063 49.7588 53.8579 50.3566C55.1095 50.9544 56.1147 51.9845 56.6965 53.2655C57.2784 54.5466 57.3996 55.9964 57.0387 57.3598C56.6779 58.7232 55.8582 59.9128 54.724 60.7191C53.5898 61.5253 52.2137 61.8966 50.838 61.7676C49.4624 61.6385 48.1754 61.0174 47.2036 60.0136C46.2318 59.0097 45.6375 57.6875 45.5254 56.2797C45.4132 54.8719 45.7904 53.4688 46.5906 52.3174L45.1929 50.8884C44.0266 52.4258 43.4482 54.345 43.566 56.287C43.6838 58.2289 44.4897 60.0603 45.8329 61.4386C47.176 62.8168 48.9644 63.6473 50.8633 63.7746C52.7621 63.9019 54.6412 63.3174 56.149 62.1303C57.6567 60.9433 58.6896 59.2351 59.0545 57.3255C59.4193 55.416 59.091 53.4359 58.131 51.756C57.1711 50.0761 55.6452 48.8114 53.8391 48.1988C52.033 47.5861 50.0705 47.6674 48.3187 48.4274L46.8497 46.9264C48.2461 46.1805 49.7986 45.792 51.3741 45.7944C56.7758 45.7944 61.1545 50.2714 61.1545 55.7944C61.1545 61.3174 56.7758 65.7944 51.3741 65.7944C45.9724 65.7944 41.5938 61.3174 41.5938 55.7944C41.5923 54.3122 41.9137 52.8482 42.5348 51.5089C43.1558 50.1695 44.0609 48.9885 45.1841 48.0514Z" fill="#BFBFBF"/>
<defs>
<filter id="filter0_d" x="0.393066" y="0.794434" width="110" height="110" filterUnits="userSpaceOnUse" color-interpolation-filters="sRGB">
<feFlood flood-opacity="0" result="BackgroundImageFix"/>
<feColorMatrix in="SourceAlpha" type="matrix" values="0 0 0 0 0 0 0 0 0 0 0 0 0 0 0 0 0 0 127 0" result="hardAlpha"/>
<feOffset/>
<feGaussianBlur stdDeviation="14.5"/>
<feColorMatrix type="matrix" values="0 0 0 0 0.266667 0 0 0 0 0.345098 0 0 0 0 0.564706 0 0 0 0.12 0"/>
<feBlend mode="normal" in2="BackgroundImageFix" result="effect1_dropShadow"/>
<feBlend mode="normal" in="SourceGraphic" in2="effect1_dropShadow" result="shape"/>
</filter>
</defs>
</svg>
